<svg class="animated" id="freepik_stories-toll-road" xmlns="http://www.w3.org/2000/svg" viewBox="0 0 750 500" version="1.1" xmlns:xlink="http://www.w3.org/1999/xlink" xmlns:svgjs="http://svgjs.com/svgjs"><style>svg#freepik_stories-toll-road:not(.animated) .animable {opacity: 0;}svg#freepik_stories-toll-road.animated #freepik--Sun--inject-34 {animation: 1s 1 forwards cubic-bezier(.36,-0.01,.5,1.38) zoomOut;animation-delay: 0s;}svg#freepik_stories-toll-road.animated #freepik--toll-booth--inject-34 {animation: 1.5s Infinite  linear floating;animation-delay: 0s;}svg#freepik_stories-toll-road.animated #freepik--car-2--inject-34 {animation: 1s 1 forwards cubic-bezier(.36,-0.01,.5,1.38) lightSpeedRight;animation-delay: 0s;}svg#freepik_stories-toll-road.animated #freepik--car-1--inject-34 {animation: 1s 1 forwards cubic-bezier(.36,-0.01,.5,1.38) lightSpeedLeft;animation-delay: 0s;}            @keyframes zoomOut {                0% {                    opacity: 0;                    transform: scale(1.5);                }                100% {                    opacity: 1;                    transform: scale(1);                }            }                    @keyframes floating {                0% {                    opacity: 1;                    transform: translateY(0px);                }                50% {                    transform: translateY(-10px);                }                100% {                    opacity: 1;                    transform: translateY(0px);                }            }                    @keyframes lightSpeedRight {              from {                transform: translate3d(50%, 0, 0) skewX(-20deg);                opacity: 0;              }              60% {                transform: skewX(10deg);                opacity: 1;              }              80% {                transform: skewX(-2deg);              }              to {                opacity: 1;                transform: translate3d(0, 0, 0);              }            }                    @keyframes lightSpeedLeft {              from {                transform: translate3d(-50%, 0, 0) skewX(20deg);                opacity: 0;              }              60% {                transform: skewX(-10deg);                opacity: 1;              }              80% {                transform: skewX(2deg);              }              to {                opacity: 1;                transform: translate3d(0, 0, 0);              }            }        </style><g id="freepik--background-complete--inject-34" class="animable animator-active" style="transform-origin: 375.002px 135.806px;"><path d="M557.32,101.72c6.94,0,123.75.77,131.1.53.52,0,.81-.79.28-1-4.63-2.29-9.88-1.83-14.68-3.45-2.84-1-4.57-2.8-6.54-4.92a13.4,13.4,0,0,0-6.08-4,12.78,12.78,0,0,0-6.61-.21c-2.37.56-4.43,1.92-6.69,2.78-5.61,2.12-11.07.1-15.07-4.05-3.31-3.42-6.56-6.65-11-8.5a14.69,14.69,0,0,0-11.7-.16c-4.29,1.94-7.23,5.85-11.25,8.2-4.77,2.78-10.48,2.13-15.75,3s-9.31,5.28-13.93,7.83a9.79,9.79,0,0,1-5,1.56c-1,0-2-.3-3.07-.43-1.59-.2-3.1-.15-4.17,1.17C556.81,100.35,556.86,101.72,557.32,101.72Z" style="fill: rgb(235, 235, 235); transform-origin: 622.956px 89.9499px;" id="el3i3k1na4buf" class="animable"></path><path d="M82.81,144.91c6.94,0,123.76.77,131.1.53a.57.57,0,0,0,.28-1.05c-4.62-2.29-9.87-1.83-14.68-3.45-2.83-.95-4.57-2.81-6.53-4.93a13.67,13.67,0,0,0-6.08-4,12.82,12.82,0,0,0-6.62-.2c-2.37.56-4.43,1.92-6.69,2.77-5.61,2.12-11.07.11-15.07-4-3.31-3.43-6.56-6.65-11.05-8.5a14.69,14.69,0,0,0-11.7-.16c-4.28,1.94-7.22,5.85-11.25,8.19-4.77,2.79-10.48,2.13-15.74,3s-9.32,5.28-13.94,7.84a10,10,0,0,1-5,1.56c-1,0-2-.31-3.07-.43-1.59-.2-3.1-.16-4.17,1.17C82.3,143.54,82.35,144.91,82.81,144.91Z" style="fill: rgb(235, 235, 235); transform-origin: 148.433px 133.135px;" id="elwbzlyg8u3b" class="animable"></path><path d="M61.31,62.42c5.07,0,90.36.56,95.72.39.38,0,.59-.58.21-.77-3.38-1.67-7.21-1.33-10.72-2.52-2.07-.69-3.34-2-4.77-3.59a9.92,9.92,0,0,0-4.44-2.9,9.31,9.31,0,0,0-4.83-.15,40,40,0,0,0-4.89,2c-4.09,1.54-8.07.07-11-3-2.41-2.5-4.78-4.85-8.06-6.2a10.73,10.73,0,0,0-8.55-.12c-3.13,1.42-5.27,4.27-8.21,6-3.48,2-7.65,1.56-11.5,2.17s-6.8,3.86-10.17,5.72a7.27,7.27,0,0,1-3.68,1.14c-.75,0-1.49-.22-2.24-.31a3.07,3.07,0,0,0-3.05.85C60.94,61.42,61,62.42,61.31,62.42Z" style="fill: rgb(235, 235, 235); transform-origin: 109.231px 53.7863px;" id="el7z8k0n8gi0g" class="animable"></path><path d="M324.5,98.54c5.07,0,90.36.56,95.72.39.38,0,.59-.58.21-.77-3.38-1.67-7.22-1.33-10.73-2.52-2.06-.69-3.33-2-4.77-3.59a9.84,9.84,0,0,0-4.43-2.9,9.35,9.35,0,0,0-4.84-.15,39.86,39.86,0,0,0-4.88,2c-4.1,1.54-8.08.07-11-3-2.42-2.5-4.79-4.86-8.07-6.2a10.7,10.7,0,0,0-8.54-.12c-3.13,1.42-5.28,4.27-8.21,6-3.49,2-7.65,1.56-11.5,2.17s-6.8,3.85-10.18,5.72a7.2,7.2,0,0,1-3.67,1.14,20.82,20.82,0,0,1-2.24-.32,3.08,3.08,0,0,0-3.05.86C324.13,97.54,324.17,98.54,324.5,98.54Z" style="fill: rgb(235, 235, 235); transform-origin: 372.418px 89.906px;" id="elzgnnv0i9rql" class="animable"></path><path d="M395.21,226.46c5.07,0,90.36.56,95.72.39.38,0,.59-.58.21-.77-3.38-1.67-7.22-1.34-10.73-2.52-2.06-.7-3.33-2.05-4.77-3.6a9.92,9.92,0,0,0-4.43-2.9,9.57,9.57,0,0,0-4.84-.15,43.27,43.27,0,0,0-4.88,2c-4.1,1.55-8.08.08-11-2.95-2.42-2.5-4.79-4.86-8.07-6.21a10.7,10.7,0,0,0-8.54-.11c-3.13,1.41-5.28,4.26-8.21,6-3.49,2-7.65,1.55-11.5,2.17s-6.8,3.85-10.18,5.72a7.3,7.3,0,0,1-3.67,1.14c-.76,0-1.5-.23-2.24-.32a3.07,3.07,0,0,0-3.05.86C394.84,225.45,394.88,226.46,395.21,226.46Z" style="fill: rgb(235, 235, 235); transform-origin: 443.128px 217.844px;" id="el7tlirkdfxid" class="animable"></path><path d="M109.41,216c5.07,0,90.36.56,95.72.39.38,0,.59-.58.21-.77-3.38-1.67-7.21-1.33-10.72-2.52-2.07-.69-3.34-2-4.77-3.59a9.92,9.92,0,0,0-4.44-2.9,9.31,9.31,0,0,0-4.83-.15,41.58,41.58,0,0,0-4.89,2c-4.09,1.55-8.08.08-11-2.95-2.41-2.5-4.79-4.86-8.07-6.2a10.7,10.7,0,0,0-8.54-.12c-3.13,1.42-5.27,4.27-8.21,6-3.49,2-7.65,1.56-11.5,2.17s-6.8,3.85-10.17,5.72a7.27,7.27,0,0,1-3.68,1.14,20.82,20.82,0,0,1-2.24-.32,3.08,3.08,0,0,0-3,.86C109,215,109.08,216,109.41,216Z" style="fill: rgb(235, 235, 235); transform-origin: 157.325px 207.391px;" id="elqg5royc743d" class="animable"></path><path d="M215,77.45c.1.29,134.43,0,132.73,0-.77,0,1.17-1.15.42-1.53-4.38-2.17-9.16-2.23-13.92-2.67a21.3,21.3,0,0,1-8.13-2c-2.53-1.32-4.11-3.63-5.91-5.75a25.24,25.24,0,0,0-22.94-8.69c-9.55,1.49-17.08,8.77-26.64,10.11-5.75.8-11.19-1.42-16.8-2.2a20.5,20.5,0,0,0-12.62,2.3c-3,1.5-5.83,2.77-9.25,3-2.63.19-5.27-.11-7.91-.14a17.7,17.7,0,0,0-11.63,4.65C211.92,74.94,210.57,77.45,215,77.45Z" style="fill: rgb(235, 235, 235); transform-origin: 280.076px 67.0614px;" id="el2tvh1c61qen" class="animable"></path><path d="M455.71,200.06c.1.28,134.42,0,132.73,0-.77,0,1.17-1.16.41-1.53-4.37-2.17-9.15-2.23-13.91-2.67a21.54,21.54,0,0,1-8.14-2c-2.53-1.33-4.1-3.63-5.9-5.76A25.27,25.27,0,0,0,538,179.44c-9.55,1.5-17.08,8.78-26.65,10.11-5.74.81-11.18-1.42-16.8-2.2a20.56,20.56,0,0,0-12.61,2.31c-3,1.5-5.83,2.76-9.25,3-2.64.19-5.28-.11-7.91-.14a17.68,17.68,0,0,0-11.63,4.65C452.68,197.55,451.33,200.06,455.71,200.06Z" style="fill: rgb(235, 235, 235); transform-origin: 520.806px 189.681px;" id="elebpf6lcso1w" class="animable"></path></g><g id="freepik--Floor--inject-34" class="animable" style="transform-origin: 375px 391.471px;"><path d="M55.38,283.4c204.77-.61,434.47-.61,639.24,0-204.77.62-434.47.62-639.24,0Z" style="fill: rgb(38, 50, 56); transform-origin: 375px 283.404px;" id="eln18fvo2e6l" class="animable"></path><polygon points="750 367.34 750 500 0 500 0 367.34 123.08 283.4 626.92 283.4 750 367.34" style="fill: rgb(166, 166, 166); transform-origin: 375px 391.7px;" id="el1s6drnjhxha" class="animable"></polygon><polygon points="750 380.16 750 387.09 608.62 283.4 614.7 283.4 750 380.16" style="fill: rgb(255, 199, 39); transform-origin: 679.31px 335.245px;" id="elhhn4j4f0x4w" class="animable"></polygon><polygon points="141.38 283.4 0 387.09 0 380.16 135.3 283.4 141.38 283.4" style="fill: rgb(255, 199, 39); transform-origin: 70.69px 335.245px;" id="elq0usdvv97c" class="animable"></polygon><polygon points="512.85 300.73 502.63 300.73 487.57 283.02 505.22 283.02 512.85 300.73" style="fill: rgb(199, 199, 199); transform-origin: 500.21px 291.875px;" id="elv7ecx8mi36p" class="animable"></polygon><polygon points="520.98 313.11 510.35 313.11 505.48 305.3 515.85 305.3 520.98 313.11" style="fill: rgb(199, 199, 199); transform-origin: 513.23px 309.205px;" id="elulvg6rf9ix" class="animable"></polygon><polygon points="530.63 327.8 519.52 327.8 513.97 318.9 524.79 318.9 530.63 327.8" style="fill: rgb(199, 199, 199); transform-origin: 522.3px 323.35px;" id="elx16kg4uwfkc" class="animable"></polygon><polygon points="576.2 397.16 562.83 397.16 524.9 336.41 536.3 336.41 576.2 397.16" style="fill: rgb(199, 199, 199); transform-origin: 550.55px 366.785px;" id="el94umkwtocdr" class="animable"></polygon><polygon points="643.76 500 627.03 500 572.38 412.45 586.25 412.45 643.76 500" style="fill: rgb(199, 199, 199); transform-origin: 608.07px 456.225px;" id="elsuexreeego" class="animable"></polygon><polygon points="237.15 300.73 247.37 300.73 262.43 283.02 244.78 283.02 237.15 300.73" style="fill: rgb(199, 199, 199); transform-origin: 249.79px 291.875px;" id="elzhlmzt0iked" class="animable"></polygon><polygon points="229.02 313.11 239.65 313.11 244.52 305.3 234.15 305.3 229.02 313.11" style="fill: rgb(199, 199, 199); transform-origin: 236.77px 309.205px;" id="elrqrtiwnbork" class="animable"></polygon><polygon points="219.37 327.8 230.47 327.8 236.03 318.9 225.21 318.9 219.37 327.8" style="fill: rgb(199, 199, 199); transform-origin: 227.7px 323.35px;" id="el7clll0hu34q" class="animable"></polygon><polygon points="173.8 397.16 187.17 397.16 225.1 336.41 213.7 336.41 173.8 397.16" style="fill: rgb(199, 199, 199); transform-origin: 199.45px 366.785px;" id="eldafjoa8hplc" class="animable"></polygon><polygon points="106.24 500 122.97 500 177.63 412.45 163.75 412.45 106.24 500" style="fill: rgb(199, 199, 199); transform-origin: 141.935px 456.225px;" id="el2gr0fb0u4ld" class="animable"></polygon><polygon points="381.81 500 368.19 500 371.83 283.4 378.16 283.4 381.81 500" style="fill: rgb(199, 199, 199); transform-origin: 375px 391.7px;" id="elbd73rd9tzc" class="animable"></polygon></g><g id="freepik--Plants--inject-34" class="animable" style="transform-origin: 377.155px 269.568px;"><path d="M58.37,283.4H119a11.07,11.07,0,0,0,1.71-3.33c.52-1.85,0-4.3-1.89-5.14-1.24-.54-2.57-.09-3.85-.06a1.07,1.07,0,0,1-1-.4,1.17,1.17,0,0,1-.09-.86,2.76,2.76,0,0,1,1.32-1.44.17.17,0,0,0,0-.25,3.14,3.14,0,0,0-3.91-.09,2.16,2.16,0,0,1,.06-2.53c.46-.83,1.21-1.45,1.74-2.23a2.82,2.82,0,0,0,.59-2.09,3.22,3.22,0,0,0-1.28-1.89c-1-.83-2.83-1.76-4-.78s-.49,3.08-1.36,4.39a1.43,1.43,0,0,1-1,.74,1.18,1.18,0,0,1-1-.62c-.31-.44-.56-1-1.09-1.15.14-1.35.49-2.66.62-4,.19-1.94-.25-4.46-2.28-5.29a3.06,3.06,0,0,0-2.48,0,2.5,2.5,0,0,0-1.29,2.21c0,1.15.34,2.28.21,3.42-.09.71-.43,1.45-1.27,1.29a4.37,4.37,0,0,1-1.55-.85c-.62-.43-1.69-.9-2.34-.27-.38.38-.33,1-.66,1.37a1.76,1.76,0,0,1-1.4.49c-1,0-2-.23-3-.14a6.68,6.68,0,0,0-2.76.81,4.61,4.61,0,0,0-1.85,2c-.34.74-.93,2.46-2,1.7a4.18,4.18,0,0,1-1-1.39c-.28-.47-.57-1-.88-1.42a6.47,6.47,0,0,0-2.2-2.15,4.36,4.36,0,0,0-5.48,1.2,4.45,4.45,0,0,0-.87,2.88c.07,1.19.88,2.2.93,3.38a1.62,1.62,0,0,1-.64,1.5c-.62.37-1.39,0-2-.11s-1.77-.07-2.06.71a1.07,1.07,0,0,0,.22,1c.14.19.3.35.42.55s.14.4-.12.57c-.75.5-1.77.32-2.63.4C60.38,276.07,58.6,282,58.37,283.4Z" style="fill: rgb(55, 71, 79); transform-origin: 89.6351px 269.759px;" id="eljb2dr5ko35i" class="animable"></path><path d="M101.2,273.51c.74,3.35,1.47,6.64.6,9.89h.7l.75-1.94c2.49-1.16,5.18-.23,7.81-.55a8.55,8.55,0,0,0,5.55-2.9.12.12,0,0,0-.17-.16,12.22,12.22,0,0,1-3.67,2.1c.28-.33.55-.67.85-1s.94-.83,1.41-1.24c0,0,0-.07,0-.05a8.89,8.89,0,0,0-1.49,1.18,8,8,0,0,0-1.17,1.23,9.57,9.57,0,0,1-2.67.37c-2.07,0-4.38-.47-6.25.58.16-.39.32-.78.49-1.17a36,36,0,0,1,2.56-4.68,32.67,32.67,0,0,0,2.64-4.59,19,19,0,0,0,1.25-4.92c0-.08-.12-.13-.14,0a23,23,0,0,1-3.53,8c.48-1.45.87-2.93,1.48-4.34,0-.1-.1-.19-.15-.09a18.69,18.69,0,0,0-2,5.49l-.31.51a33.39,33.39,0,0,0-2.85,5.59,23.31,23.31,0,0,0-.76-6.18,34.16,34.16,0,0,1-1-6.51c0-.2,0-.39,0-.59a15.4,15.4,0,0,0,1.47-8.13.14.14,0,0,0-.28,0,24.52,24.52,0,0,1-.34,4.52,19.63,19.63,0,0,1-.84,2.93,51.69,51.69,0,0,1,.47-5.25c0-.15-.21-.17-.25,0A24.22,24.22,0,0,0,101.2,273.51Z" style="fill: rgb(69, 90, 100); transform-origin: 108.581px 271.335px;" id="el4ro9j97uiv" class="animable"></path><path d="M87.73,269a25.39,25.39,0,0,0,1.55,2.67,12.09,12.09,0,0,0,.62,2.12,7.65,7.65,0,0,0,1.61,2.51,6,6,0,0,1,1.9,2.82,10.11,10.11,0,0,0-1.19,4.28h.49c.43-2.71,1.81-4.92,3.05-7.4,1.09-2.16,2-5,.91-7.34-.06-.13-.26,0-.23.1.74,3.14-.58,5.77-2,8.47-.22.42-.46.85-.68,1.29A3.91,3.91,0,0,0,93,277a17.73,17.73,0,0,1-2.18-2.77c-1.25-2.36-1-4.93-1.4-7.49,0-.14-.21-.08-.22,0a15.11,15.11,0,0,0,0,4.14A16.31,16.31,0,0,0,88,268.88.13.13,0,0,0,87.73,269Z" style="fill: rgb(69, 90, 100); transform-origin: 92.4395px 275.028px;" id="el9c5vrgu163s" class="animable"></path><path d="M74.79,267.34A8.3,8.3,0,0,0,76.41,271c.63.83,1.61,1.36,2.23,2.18.52,1.1,1.12,2.16,1.72,3.22s1.81,2.65,1.25,4a.08.08,0,0,0,.08.12,4.6,4.6,0,0,0-1.06,2.9h.3c.33-3.92,5.91-5,6-9,0-.18-.3-.23-.33,0-.42,2.2-2.13,3.43-3.68,4.86a10.43,10.43,0,0,0-.92,1,3,3,0,0,0-.28-2.53c-.62-1.28-1.38-2.49-2-3.75a25.5,25.5,0,0,1-1.79-4.08,15.76,15.76,0,0,1-.58-4.43.08.08,0,0,0-.16,0c-.52,2.18.19,4.68,1,6.74-.32-.3-.67-.59-1-.91a12.48,12.48,0,0,1-2.12-3.93A.15.15,0,1,0,74.79,267.34Z" style="fill: rgb(69, 90, 100); transform-origin: 80.8592px 274.415px;" id="elc44nqt4hydn" class="animable"></path><path d="M63.54,279.12c1.33.19,2.61.51,4,.58a19.51,19.51,0,0,0,4.11-.21,19.58,19.58,0,0,1,5-.47,15.7,15.7,0,0,1-1.47-.76,9.14,9.14,0,0,1-3.71-4.3c-.06-.18.19-.24.28-.12a19.36,19.36,0,0,0,2.37,2.9,15.6,15.6,0,0,0,3.55,2.14,6.84,6.84,0,0,1,2.47,1.86c.17.23,1,1.38.49,1.63a.08.08,0,0,1-.08,0l0,0a0,0,0,0,1,0-.08,9.16,9.16,0,0,0-.9-1.4,6.12,6.12,0,0,0-1.25-1l-.71-.38c-2.26-.43-4.58.39-6.83.66a15.22,15.22,0,0,1-7.4-.67A.19.19,0,0,1,63.54,279.12Z" style="fill: rgb(69, 90, 100); transform-origin: 72.0497px 278.079px;" id="elycziwwbcn8g" class="animable"></path><path d="M93,282.2a8.55,8.55,0,0,1,2.74-2.13,6.31,6.31,0,0,0,2.86-3.44c0-.13.28-.12.26,0-.38,3.09-3.57,4-5.66,5.68C93.14,282.44,93,282.33,93,282.2Z" style="fill: rgb(69, 90, 100); transform-origin: 95.9305px 279.452px;" id="elyrvhkf979ur" class="animable"></path><path d="M106.9,280.25a8.26,8.26,0,0,1,2.54-2.82,9.79,9.79,0,0,0,1.45-1.5,10,10,0,0,0,1.2-2.62.09.09,0,0,1,.17.05,7.72,7.72,0,0,1-2,3.9c-1.06,1.06-2.23,1.95-3.24,3.07A.08.08,0,0,1,106.9,280.25Z" style="fill: rgb(69, 90, 100); transform-origin: 109.58px 276.801px;" id="elim7tdq2wyr" class="animable"></path><path d="M104,268.53a.4.4,0,0,0,.75-.1.28.28,0,0,0,0-.09v0a.45.45,0,0,0,0-.23.39.39,0,0,0-.31-.29C104.09,267.72,103.83,268.19,104,268.53Z" style="fill: rgb(69, 90, 100); transform-origin: 104.356px 268.279px;" id="el2120hhlbvgp" class="animable"></path><path d="M65.56,278a.4.4,0,0,0,.75-.11s0-.05,0-.08v0a.34.34,0,0,0,0-.23.4.4,0,0,0-.3-.3C65.62,277.15,65.37,277.62,65.56,278Z" style="fill: rgb(69, 90, 100); transform-origin: 65.9125px 277.738px;" id="elsb23fsseba" class="animable"></path><path d="M103,269.13v0h0a.26.26,0,0,1,.06-.24l.06,0a.2.2,0,0,1,.31.08c.11.23-.16.54-.36.34l0-.07h0Z" style="fill: rgb(69, 90, 100); transform-origin: 103.224px 269.11px;" id="elv5d8r7v433" class="animable"></path><path d="M79.11,267.26l0,0h0a.26.26,0,0,1,.22-.13h.06a.2.2,0,0,1,.17.28c-.08.24-.49.27-.49,0a.28.28,0,0,1,0-.09h0Z" style="fill: rgb(69, 90, 100); transform-origin: 79.3216px 267.366px;" id="el335s35fjtz3" class="animable"></path><path d="M102.89,267.66a.16.16,0,0,1,.21.08.1.1,0,0,1,0,.09.15.15,0,0,1-.3.06A.19.19,0,0,1,102.89,267.66Z" style="fill: rgb(69, 90, 100); transform-origin: 102.95px 267.83px;" id="els1g2y5ivc2e" class="animable"></path><path d="M94.45,263.1a.16.16,0,0,1,.21.07.11.11,0,0,1,0,.1.15.15,0,0,1-.3.05A.17.17,0,0,1,94.45,263.1Z" style="fill: rgb(69, 90, 100); transform-origin: 94.5098px 263.266px;" id="el0wgjevkiygzr" class="animable"></path><path d="M78.34,265.88a.16.16,0,0,1,.09.2.12.12,0,0,1-.06.08.15.15,0,0,1-.25-.17A.18.18,0,0,1,78.34,265.88Z" style="fill: rgb(69, 90, 100); transform-origin: 78.2665px 266.049px;" id="elb00qsbcq64d" class="animable"></path><path d="M691.63,283.4H630.15A11.45,11.45,0,0,1,628.4,280c-.52-1.87,0-4.36,1.92-5.22,1.26-.55,2.61-.09,3.92-.05a1.11,1.11,0,0,0,1-.42,1.19,1.19,0,0,0,.1-.87A2.86,2.86,0,0,0,634,272a.17.17,0,0,1,0-.25,3.17,3.17,0,0,1,4-.09,2.19,2.19,0,0,0-.06-2.57c-.47-.84-1.23-1.47-1.77-2.26a2.94,2.94,0,0,1-.6-2.13,3.27,3.27,0,0,1,1.3-1.91c1-.84,2.87-1.79,4.12-.79s.49,3.12,1.37,4.45a1.47,1.47,0,0,0,1,.75,1.17,1.17,0,0,0,1-.63c.32-.44.57-1,1.11-1.17-.15-1.36-.5-2.69-.63-4.06-.19-2,.25-4.52,2.31-5.36a3.15,3.15,0,0,1,2.52,0,2.55,2.55,0,0,1,1.31,2.25c0,1.16-.35,2.31-.21,3.48.09.71.43,1.46,1.29,1.3a4.39,4.39,0,0,0,1.57-.86c.63-.44,1.71-.92,2.37-.27.39.38.34,1,.68,1.39a1.77,1.77,0,0,0,1.41.49c1,0,2-.23,3.06-.14a6.55,6.55,0,0,1,2.8.83,4.51,4.51,0,0,1,1.88,2c.34.75,1,2.49,2.07,1.72a4.11,4.11,0,0,0,1-1.4c.29-.49.58-1,.9-1.44A6.58,6.58,0,0,1,672,263.2a4.44,4.44,0,0,1,5.56,1.22,4.51,4.51,0,0,1,.88,2.92c-.06,1.21-.89,2.24-.94,3.44a1.68,1.68,0,0,0,.65,1.52c.63.37,1.42,0,2.07-.12s1.78-.07,2.08.72a1.11,1.11,0,0,1-.22,1c-.14.19-.31.36-.43.56s-.13.4.13.57c.76.52,1.79.33,2.66.42C689.59,276,691.4,282,691.63,283.4Z" style="fill: rgb(69, 90, 100); transform-origin: 659.92px 269.558px;" id="el0xdvnu4zltr" class="animable"></path><path d="M648.16,273.37c-.75,3.39-1.49,6.73-.61,10h-.71c-.26-.65-.51-1.31-.77-2-2.52-1.18-5.25-.23-7.91-.56a8.67,8.67,0,0,1-5.64-2.94.12.12,0,0,1,.17-.16,12.56,12.56,0,0,0,3.72,2.13c-.28-.34-.55-.68-.86-1-.45-.46-.95-.85-1.43-1.27,0,0,0-.06,0-.05a10.2,10.2,0,0,1,1.51,1.2,8.23,8.23,0,0,1,1.18,1.25,9.56,9.56,0,0,0,2.72.37c2.09,0,4.44-.47,6.34.6-.16-.4-.33-.8-.5-1.19a35.24,35.24,0,0,0-2.6-4.75,31.29,31.29,0,0,1-2.67-4.67,19,19,0,0,1-1.28-5c0-.09.13-.13.14,0a23.15,23.15,0,0,0,3.59,8.14c-.49-1.47-.89-3-1.51-4.4,0-.1.11-.19.16-.09a18.82,18.82,0,0,1,2,5.57l.33.51a34.12,34.12,0,0,1,2.88,5.69,24,24,0,0,1,.77-6.28,35.24,35.24,0,0,0,1-6.61v-.6a15.75,15.75,0,0,1-1.49-8.25.15.15,0,0,1,.29,0,25.21,25.21,0,0,0,.34,4.59,18,18,0,0,0,.86,3c0-1.79-.26-3.53-.49-5.33,0-.15.22-.17.26,0A24.7,24.7,0,0,1,648.16,273.37Z" style="fill: rgb(55, 71, 79); transform-origin: 640.658px 271.134px;" id="el4y5dw1xdsds" class="animable"></path><path d="M661.83,268.79a27.31,27.31,0,0,1-1.58,2.71,11.82,11.82,0,0,1-.62,2.15,8,8,0,0,1-1.63,2.54,6.14,6.14,0,0,0-1.94,2.87,10.27,10.27,0,0,1,1.22,4.34h-.51c-.43-2.75-1.83-5-3.09-7.51-1.11-2.2-2-5.06-.93-7.45.07-.13.27,0,.24.1-.76,3.19.58,5.86,2.07,8.6.23.42.46.86.69,1.3a3.73,3.73,0,0,1,.78-1.5,18.72,18.72,0,0,0,2.21-2.81c1.26-2.41,1.06-5,1.41-7.6,0-.15.22-.09.23,0a15.62,15.62,0,0,1,0,4.21,15.78,15.78,0,0,1,1.24-2.11A.13.13,0,0,1,661.83,268.79Z" style="fill: rgb(55, 71, 79); transform-origin: 657.062px 274.919px;" id="elb1r2aeb8q0t" class="animable"></path><path d="M675,267.1a8.49,8.49,0,0,1-1.65,3.7c-.64.84-1.63,1.38-2.26,2.22-.53,1.12-1.14,2.19-1.75,3.27s-1.83,2.68-1.26,4c0,.07,0,.11-.09.12A4.6,4.6,0,0,1,669,283.4h-.3c-.33-4-6-5-6-9.14,0-.19.3-.24.33-.05.42,2.23,2.16,3.49,3.73,4.94a9.59,9.59,0,0,1,.94,1,3,3,0,0,1,.28-2.56c.63-1.3,1.4-2.54,2.07-3.81a26.27,26.27,0,0,0,1.82-4.14,15.94,15.94,0,0,0,.59-4.5.08.08,0,0,1,.16,0c.52,2.22-.19,4.75-1.06,6.84.32-.31.68-.6,1-.92a12.85,12.85,0,0,0,2.15-4A.16.16,0,0,1,675,267.1Z" style="fill: rgb(55, 71, 79); transform-origin: 668.85px 274.23px;" id="eldxhugmrq2ca" class="animable"></path><path d="M686.38,279.06c-1.35.19-2.65.51-4,.58a20.18,20.18,0,0,1-4.18-.21,20.09,20.09,0,0,0-5.1-.48,16.12,16.12,0,0,0,1.49-.77,9.23,9.23,0,0,0,3.76-4.36c.07-.18-.19-.25-.28-.12a20.41,20.41,0,0,1-2.4,2.94,16.27,16.27,0,0,1-3.6,2.17,6.92,6.92,0,0,0-2.52,1.89c-.17.23-1,1.4-.5,1.65a.09.09,0,0,0,.09,0l0,0s0-.08,0-.08a9,9,0,0,1,.91-1.43,6.29,6.29,0,0,1,1.27-1c.23-.14.47-.26.72-.38,2.3-.45,4.65.39,6.94.67a15.57,15.57,0,0,0,7.51-.69A.19.19,0,0,0,686.38,279.06Z" style="fill: rgb(55, 71, 79); transform-origin: 677.762px 277.998px;" id="elmfxfpm5v1cd" class="animable"></path><path d="M656.44,282.18a8.65,8.65,0,0,0-2.78-2.16,6.4,6.4,0,0,1-2.9-3.49c0-.13-.29-.12-.27,0,.39,3.13,3.63,4,5.75,5.77C656.34,282.42,656.53,282.31,656.44,282.18Z" style="fill: rgb(55, 71, 79); transform-origin: 653.476px 279.394px;" id="elt7h6tbjrbs" class="animable"></path><path d="M642.38,280.2a8.72,8.72,0,0,0-2.58-2.86,10.13,10.13,0,0,1-1.48-1.52,10,10,0,0,1-1.21-2.66.09.09,0,1,0-.17,0,7.86,7.86,0,0,0,2,4c1.08,1.07,2.26,2,3.29,3.11C642.29,280.34,642.41,280.28,642.38,280.2Z" style="fill: rgb(55, 71, 79); transform-origin: 639.66px 276.671px;" id="elkjisj5itl6" class="animable"></path><path d="M645.29,268.31a.41.41,0,0,1-.76-.11.29.29,0,0,1,0-.09h0a.38.38,0,0,1,0-.24.42.42,0,0,1,.32-.3C645.22,267.49,645.49,268,645.29,268.31Z" style="fill: rgb(55, 71, 79); transform-origin: 644.934px 268.042px;" id="elmzknoqq7msn" class="animable"></path><path d="M684.33,277.88a.41.41,0,0,1-.76-.11s0-.06,0-.09h0a.47.47,0,0,1,0-.24.4.4,0,0,1,.31-.3A.49.49,0,0,1,684.33,277.88Z" style="fill: rgb(55, 71, 79); transform-origin: 683.977px 277.616px;" id="el6u0hemmgknf" class="animable"></path><path d="M646.33,268.92s0,0,0,0h0a.28.28,0,0,0-.06-.25l-.06,0a.21.21,0,0,0-.32.08c-.11.24.16.55.37.35a.22.22,0,0,0,.05-.08h0Z" style="fill: rgb(55, 71, 79); transform-origin: 646.101px 268.895px;" id="ely51csmhh5sf" class="animable"></path><path d="M670.58,267l0,0h0a.26.26,0,0,0-.22-.13h-.07a.2.2,0,0,0-.17.28c.08.24.5.27.5,0a.28.28,0,0,0,0-.09h0Z" style="fill: rgb(55, 71, 79); transform-origin: 670.363px 267.106px;" id="elwxmo3lutna" class="animable"></path><path d="M646.44,267.43a.16.16,0,0,0-.21.07.12.12,0,0,0,0,.1.15.15,0,0,0,.3.06A.18.18,0,0,0,646.44,267.43Z" style="fill: rgb(55, 71, 79); transform-origin: 646.381px 267.598px;" id="el9zv7patyfe" class="animable"></path><path d="M655,262.79a.16.16,0,0,0-.21.08.1.1,0,0,0,0,.09.15.15,0,0,0,.3.06A.19.19,0,0,0,655,262.79Z" style="fill: rgb(55, 71, 79); transform-origin: 654.94px 262.96px;" id="elayx9ndf8f5u" class="animable"></path><path d="M671.37,265.62a.16.16,0,0,0-.1.2.12.12,0,0,0,.06.08.16.16,0,0,0,.25-.18A.18.18,0,0,0,671.37,265.62Z" style="fill: rgb(55, 71, 79); transform-origin: 671.426px 265.774px;" id="ellwf5kl6gker" class="animable"></path><path d="M659.63,283.4h35.16a6.69,6.69,0,0,0,1-1.93,2.48,2.48,0,0,0-1.1-3,5,5,0,0,0-2.24,0,.6.6,0,0,1-.59-.23.67.67,0,0,1-.06-.5,1.66,1.66,0,0,1,.77-.84.1.1,0,0,0,0-.14,1.81,1.81,0,0,0-2.27-.05,1.25,1.25,0,0,1,0-1.47c.27-.48.7-.84,1-1.29a1.69,1.69,0,0,0,.35-1.22,1.91,1.91,0,0,0-.75-1.1c-.6-.48-1.64-1-2.35-.45s-.28,1.79-.79,2.55a.83.83,0,0,1-.6.43.68.68,0,0,1-.55-.36c-.18-.26-.32-.56-.63-.67.08-.78.28-1.54.36-2.32.11-1.13-.14-2.59-1.32-3.07a1.8,1.8,0,0,0-1.44,0,1.46,1.46,0,0,0-.75,1.28c0,.67.2,1.33.12,2,0,.41-.25.84-.74.75a2.59,2.59,0,0,1-.89-.49c-.36-.25-1-.53-1.36-.16-.23.22-.2.56-.39.8a1,1,0,0,1-.81.28c-.59,0-1.16-.13-1.75-.08a3.75,3.75,0,0,0-1.6.47,2.58,2.58,0,0,0-1.07,1.17c-.2.42-.55,1.42-1.19,1a2.6,2.6,0,0,1-.59-.8c-.16-.28-.33-.56-.51-.83a3.89,3.89,0,0,0-1.27-1.25,2.55,2.55,0,0,0-3.19.7,2.62,2.62,0,0,0-.5,1.67c0,.69.51,1.28.54,2a1,1,0,0,1-.37.87c-.37.22-.81,0-1.18-.06s-1,0-1.2.41a.64.64,0,0,0,.13.58,3.92,3.92,0,0,1,.25.32c.09.16.07.23-.08.33a3.1,3.1,0,0,1-1.52.23C660.8,279.15,659.76,282.59,659.63,283.4Z" style="fill: rgb(55, 71, 79); transform-origin: 677.785px 275.495px;" id="elk28edomjjva" class="animable"></path><path d="M684.49,277.66a12.09,12.09,0,0,1,.35,5.74h.4c.15-.37.3-.75.44-1.12,1.45-.68,3-.14,4.53-.32a5,5,0,0,0,3.22-1.69c.06-.06,0-.14-.09-.09a7.15,7.15,0,0,1-2.13,1.22c.16-.19.32-.39.49-.57s.54-.48.82-.72c0,0,0,0,0,0a6.36,6.36,0,0,0-.87.68,5.1,5.1,0,0,0-.67.72,5.25,5.25,0,0,1-1.56.21c-1.2,0-2.54-.27-3.62.34.09-.22.18-.45.28-.68a21.62,21.62,0,0,1,1.49-2.71,19.61,19.61,0,0,0,1.53-2.67,11.16,11.16,0,0,0,.73-2.85c0-.05-.07-.08-.08,0a13.39,13.39,0,0,1-2.05,4.65,25.63,25.63,0,0,1,.86-2.51c0-.06-.06-.11-.09-.06a10.84,10.84,0,0,0-1.17,3.19l-.18.29a20.24,20.24,0,0,0-1.65,3.25,14.12,14.12,0,0,0-.44-3.59,20.1,20.1,0,0,1-.59-3.78v-.34a8.88,8.88,0,0,0,.85-4.72c0-.1-.16-.11-.16,0a14.49,14.49,0,0,1-.19,2.63,12.72,12.72,0,0,1-.5,1.7c0-1,.15-2,.28-3.05,0-.09-.12-.1-.14,0A14,14,0,0,0,684.49,277.66Z" style="fill: rgb(69, 90, 100); transform-origin: 688.781px 276.426px;" id="eluyg0kmipq8e" class="animable"></path><path d="M676.67,275.05a15.86,15.86,0,0,0,.9,1.54,7.1,7.1,0,0,0,.36,1.24,4.61,4.61,0,0,0,.93,1.45,3.42,3.42,0,0,1,1.11,1.64,5.85,5.85,0,0,0-.69,2.48h.29a14.51,14.51,0,0,1,1.76-4.29c.64-1.26,1.16-2.9.53-4.26,0-.08-.15,0-.13.06.43,1.82-.34,3.34-1.19,4.91l-.39.75a2.2,2.2,0,0,0-.44-.86,11.52,11.52,0,0,1-1.27-1.61c-.72-1.37-.61-2.86-.81-4.35,0-.08-.12,0-.13,0a8.85,8.85,0,0,0,0,2.41,10.36,10.36,0,0,0-.71-1.21C676.75,274.89,676.63,275,676.67,275.05Z" style="fill: rgb(69, 90, 100); transform-origin: 679.404px 278.557px;" id="elivanifw24xf" class="animable"></path><path d="M669.16,274.08a4.89,4.89,0,0,0,.94,2.12c.37.48.94.79,1.29,1.26.31.64.66,1.26,1,1.88s1.05,1.53.73,2.31c0,0,0,.07,0,.07a2.66,2.66,0,0,0-.62,1.68h.17c.2-2.27,3.43-2.88,3.46-5.23,0-.1-.17-.13-.19,0-.24,1.27-1.24,2-2.13,2.82a5.73,5.73,0,0,0-.54.56,1.71,1.71,0,0,0-.16-1.47c-.36-.74-.8-1.45-1.18-2.18a13.76,13.76,0,0,1-1-2.36,9,9,0,0,1-.34-2.58,0,0,0,0,0-.09,0,6.65,6.65,0,0,0,.61,3.91c-.19-.17-.39-.34-.56-.52a7.35,7.35,0,0,1-1.23-2.29A.09.09,0,0,0,669.16,274.08Z" style="fill: rgb(69, 90, 100); transform-origin: 672.645px 278.18px;" id="elws63ts8olt" class="animable"></path><path d="M662.63,280.92c.77.11,1.52.29,2.3.33a11.15,11.15,0,0,0,2.38-.12,11.2,11.2,0,0,1,2.92-.27,8.53,8.53,0,0,1-.85-.44,5.29,5.29,0,0,1-2.15-2.5c0-.1.11-.14.16-.07a11.16,11.16,0,0,0,1.37,1.68,8.92,8.92,0,0,0,2.07,1.25,4,4,0,0,1,1.43,1.08c.1.13.58.8.29.94h0l0,0s0,0,0,0-.51-.81-.52-.82a3.58,3.58,0,0,0-.73-.55l-.4-.22c-1.32-.25-2.67.23-4,.38a8.84,8.84,0,0,1-4.3-.39A.11.11,0,0,1,662.63,280.92Z" style="fill: rgb(69, 90, 100); transform-origin: 667.558px 280.307px;" id="eljagzpj598wg" class="animable"></path><path d="M679.75,282.71a4.93,4.93,0,0,1,1.59-1.24,3.65,3.65,0,0,0,1.66-2c0-.08.17-.08.16,0-.22,1.79-2.08,2.3-3.29,3.29C679.81,282.84,679.7,282.78,679.75,282.71Z" style="fill: rgb(69, 90, 100); transform-origin: 681.449px 281.104px;" id="eln5cia4j8q9" class="animable"></path><path d="M687.8,281.57a4.87,4.87,0,0,1,1.47-1.63,6.35,6.35,0,0,0,.85-.87,6.13,6.13,0,0,0,.69-1.52.05.05,0,0,1,.1,0,4.52,4.52,0,0,1-1.15,2.27c-.62.61-1.3,1.13-1.88,1.78C687.85,281.65,687.78,281.62,687.8,281.57Z" style="fill: rgb(69, 90, 100); transform-origin: 689.353px 279.563px;" id="el6n9gjf5qsnl" class="animable"></path><path d="M686.13,274.77a.24.24,0,0,0,.44-.06s0,0,0,0h0a.18.18,0,0,0,0-.13.24.24,0,0,0-.17-.18A.28.28,0,0,0,686.13,274.77Z" style="fill: rgb(69, 90, 100); transform-origin: 686.349px 274.645px;" id="el7xnga9ntpz8" class="animable"></path><path d="M663.81,280.24a.23.23,0,0,0,.43-.06.07.07,0,0,0,0-.05h0a.28.28,0,0,0,0-.13.22.22,0,0,0-.18-.17A.27.27,0,0,0,663.81,280.24Z" style="fill: rgb(69, 90, 100); transform-origin: 664.009px 280.097px;" id="elfbehwbdy0gs" class="animable"></path><path d="M685.54,275.12v0h0a.14.14,0,0,1,0-.14l0,0a.11.11,0,0,1,.18,0c.06.13-.09.31-.21.2l0-.05h0Z" style="fill: rgb(69, 90, 100); transform-origin: 685.622px 275.074px;" id="eldbi0i9gkcj6" class="animable"></path><path d="M671.67,274v0h0a.14.14,0,0,1,.13-.08h0c.08,0,.14.07.1.16s-.28.16-.28,0a.11.11,0,0,1,0-.05Z" style="fill: rgb(69, 90, 100); transform-origin: 671.765px 274.048px;" id="el8s04x5yp1pr" class="animable"></path><path d="M685.47,274.27a.1.1,0,0,1,.12,0,.13.13,0,0,1,0,.06.09.09,0,0,1-.18,0A.12.12,0,0,1,685.47,274.27Z" style="fill: rgb(69, 90, 100); transform-origin: 685.502px 274.335px;" id="eliv6nkb7vbs" class="animable"></path><path d="M680.57,271.62a.08.08,0,0,1,.12,0,.07.07,0,0,1,0,.06.09.09,0,0,1-.17,0A.11.11,0,0,1,680.57,271.62Z" style="fill: rgb(69, 90, 100); transform-origin: 680.608px 271.667px;" id="elxjd73xsz8f" class="animable"></path><path d="M671.22,273.23a.1.1,0,0,1,.06.12l0,0a.09.09,0,0,1-.15-.1A.14.14,0,0,1,671.22,273.23Z" style="fill: rgb(69, 90, 100); transform-origin: 671.199px 273.31px;" id="el9ore88g64vf" class="animable"></path></g><g id="freepik--Sun--inject-34" class="animable" style="transform-origin: 524.79px 80.91px;"><g id="eljt6bp5zke5q"><circle cx="524.79" cy="80.91" r="19.48" style="fill: rgb(255, 199, 39); opacity: 0.3; transform-origin: 524.79px 80.91px; transform: rotate(-74.71deg);" class="animable"></circle></g><g id="el4h9wpj6t4va"><circle cx="524.79" cy="80.91" r="15.1" style="fill: rgb(255, 199, 39); opacity: 0.6; transform-origin: 524.79px 80.91px;" class="animable"></circle></g></g><g id="freepik--toll-booth--inject-34" class="animable" style="transform-origin: 375px 195.22px;"><rect x="284.05" y="260.19" width="73.02" height="3.63" style="fill: rgb(255, 199, 39); transform-origin: 320.56px 262.005px;" id="elmd4f76dbgq" class="animable"></rect><polygon points="290.75 263.81 284.05 263.81 289.54 260.19 296.24 260.19 290.75 263.81" style="fill: rgb(38, 50, 56); transform-origin: 290.145px 262px;" id="el04goxctu4kpl" class="animable"></polygon><polygon points="304.3 263.81 297.6 263.81 303.09 260.19 309.79 260.19 304.3 263.81" style="fill: rgb(38, 50, 56); transform-origin: 303.695px 262px;" id="eldxnrw01bjmw" class="animable"></polygon><polygon points="317.85 263.81 311.15 263.81 316.64 260.19 323.34 260.19 317.85 263.81" style="fill: rgb(38, 50, 56); transform-origin: 317.245px 262px;" id="elfw1ylpogpe" class="animable"></polygon><polygon points="331.4 263.81 324.7 263.81 330.19 260.19 336.89 260.19 331.4 263.81" style="fill: rgb(38, 50, 56); transform-origin: 330.795px 262px;" id="elsjqj1i1c65" class="animable"></polygon><polygon points="344.95 263.81 338.25 263.81 343.75 260.19 350.44 260.19 344.95 263.81" style="fill: rgb(38, 50, 56); transform-origin: 344.345px 262px;" id="elsarr9810f8d" class="animable"></polygon><polygon points="357.07 260.34 357.07 263.81 351.8 263.81 357.07 260.34" style="fill: rgb(38, 50, 56); transform-origin: 354.435px 262.075px;" id="elcn3gaqowbdm" class="animable"></polygon><rect x="392.93" y="260.19" width="73.02" height="3.63" style="fill: rgb(255, 199, 39); transform-origin: 429.44px 262.005px;" id="elcg763o3ati9" class="animable"></rect><polygon points="399.63 263.81 392.93 263.81 398.43 260.19 405.12 260.19 399.63 263.81" style="fill: rgb(38, 50, 56); transform-origin: 399.025px 262px;" id="elbjw0kyp76r8" class="animable"></polygon><polygon points="413.18 263.81 406.49 263.81 411.98 260.19 418.67 260.19 413.18 263.81" style="fill: rgb(38, 50, 56); transform-origin: 412.58px 262px;" id="elobg06wz946f" class="animable"></polygon><polygon points="426.73 263.81 420.04 263.81 425.53 260.19 432.23 260.19 426.73 263.81" style="fill: rgb(38, 50, 56); transform-origin: 426.135px 262px;" id="elf15a4icirrm" class="animable"></polygon><polygon points="440.28 263.81 433.59 263.81 439.08 260.19 445.78 260.19 440.28 263.81" style="fill: rgb(38, 50, 56); transform-origin: 439.685px 262px;" id="el0q9mqy49x9z" class="animable"></polygon><polygon points="453.83 263.81 447.14 263.81 452.63 260.19 459.33 260.19 453.83 263.81" style="fill: rgb(38, 50, 56); transform-origin: 453.235px 262px;" id="elf9imnbpvtdv" class="animable"></polygon><polygon points="465.96 260.34 465.96 263.81 460.69 263.81 465.96 260.34" style="fill: rgb(38, 50, 56); transform-origin: 463.325px 262.075px;" id="elxsemz5ep16h" class="animable"></polygon><g id="el91a7g57r8wu"><rect x="503.61" y="233.47" width="73.02" height="3.63" style="fill: rgb(255, 199, 39); transform-origin: 540.12px 235.285px; transform: rotate(-47.12deg);" class="animable"></rect></g><polygon points="521.17 258.37 516.61 263.27 517.69 256.78 522.25 251.88 521.17 258.37" style="fill: rgb(38, 50, 56); transform-origin: 519.43px 257.575px;" id="elxx7uxuu80fj" class="animable"></polygon><polygon points="530.39 248.44 525.83 253.34 526.91 246.85 531.47 241.95 530.39 248.44" style="fill: rgb(38, 50, 56); transform-origin: 528.65px 247.645px;" id="elf5bjvr1l629" class="animable"></polygon><polygon points="539.61 238.51 535.05 243.41 536.13 236.92 540.69 232.02 539.61 238.51" style="fill: rgb(38, 50, 56); transform-origin: 537.87px 237.715px;" id="elekp6kdh9p6" class="animable"></polygon><polygon points="548.83 228.58 544.27 233.48 545.35 226.99 549.91 222.09 548.83 228.58" style="fill: rgb(38, 50, 56); transform-origin: 547.09px 227.785px;" id="el502cn68b6as" class="animable"></polygon><polygon points="558.05 218.65 553.49 223.55 554.57 217.06 559.13 212.16 558.05 218.65" style="fill: rgb(38, 50, 56); transform-origin: 556.31px 217.855px;" id="eltigfxundo0r" class="animable"></polygon><polygon points="563.75 207.4 566.29 209.76 562.71 213.62 563.75 207.4" style="fill: rgb(38, 50, 56); transform-origin: 564.5px 210.51px;" id="el7hrxhsve0j3" class="animable"></polygon><g id="elqniptrzl9hb"><rect x="170.04" y="237.12" width="73.02" height="3.63" style="fill: rgb(255, 199, 39); transform-origin: 206.55px 238.935px; transform: rotate(39.27deg);" class="animable"></rect></g><polygon points="182.32 221.46 177.14 217.22 183.68 217.89 188.87 222.13 182.32 221.46" style="fill: rgb(38, 50, 56); transform-origin: 183.005px 219.675px;" id="el3jakdrqiq57" class="animable"></polygon><polygon points="192.81 230.04 187.63 225.8 194.17 226.47 199.36 230.71 192.81 230.04" style="fill: rgb(38, 50, 56); transform-origin: 193.495px 228.255px;" id="el0sxrtpxco2g" class="animable"></polygon><polygon points="203.3 238.62 198.12 234.38 204.66 235.05 209.85 239.29 203.3 238.62" style="fill: rgb(38, 50, 56); transform-origin: 203.985px 236.835px;" id="el8locot8001" class="animable"></polygon><polygon points="213.79 247.19 208.61 242.96 215.15 243.63 220.34 247.87 213.79 247.19" style="fill: rgb(38, 50, 56); transform-origin: 214.475px 245.415px;" id="elwepksd8urf" class="animable"></polygon><polygon points="224.28 255.77 219.1 251.53 225.64 252.2 230.83 256.44 224.28 255.77" style="fill: rgb(38, 50, 56); transform-origin: 224.965px 253.985px;" id="el0oxzu47av8cr" class="animable"></polygon><polygon points="235.87 260.76 233.67 263.44 229.59 260.11 235.87 260.76" style="fill: rgb(38, 50, 56); transform-origin: 232.73px 261.775px;" id="el1hccjye2dcj" class="animable"></polygon><rect x="88.79" y="140.16" width="572.41" height="20.27" style="fill: rgb(69, 90, 100); transform-origin: 374.995px 150.295px;" id="elw8yhdzxfuu" class="animable"></rect><polygon points="661.21 144.85 88.79 142.03 88.79 140.16 661.21 140.16 661.21 144.85" style="fill: rgb(55, 71, 79); transform-origin: 375px 142.505px;" id="elfvze0akpcni" class="animable"></polygon><polygon points="88.79 155.73 661.21 158.56 661.21 160.43 88.79 160.43 88.79 155.73" style="fill: rgb(55, 71, 79); transform-origin: 375px 158.08px;" id="el22oga5oon29" class="animable"></polygon><rect x="104.59" y="167.69" width="540.82" height="14.24" style="fill: rgb(55, 71, 79); transform-origin: 375px 174.81px;" id="el5fxua39i0mj" class="animable"></rect><rect x="86.04" y="160.43" width="577.92" height="7.26" style="fill: rgb(69, 90, 100); transform-origin: 375px 164.06px;" id="elavjnm2cafd8" class="animable"></rect><rect x="86.04" y="132.9" width="577.92" height="7.26" style="fill: rgb(69, 90, 100); transform-origin: 375px 136.53px;" id="elhc1gzopzrb" class="animable"></rect><rect x="190.39" y="100.42" width="2.1" height="23.47" style="fill: rgb(219, 219, 219); transform-origin: 191.44px 112.155px;" id="el6i6nj7k2dmv" class="animable"></rect><rect x="312.76" y="100.42" width="2.1" height="23.47" style="fill: rgb(219, 219, 219); transform-origin: 313.81px 112.155px;" id="elsbec06yv559" class="animable"></rect><rect x="435.14" y="100.42" width="2.1" height="23.47" style="fill: rgb(219, 219, 219); transform-origin: 436.19px 112.155px;" id="el3kf341q3cg9" class="animable"></rect><rect x="557.51" y="100.42" width="2.1" height="23.47" style="fill: rgb(219, 219, 219); transform-origin: 558.56px 112.155px;" id="eliigh8u903zr" class="animable"></rect><rect x="161.67" y="123.89" width="59.52" height="25.27" style="fill: rgb(38, 50, 56); transform-origin: 191.43px 136.525px;" id="el23oxyhnymjx" class="animable"></rect><g id="eldbhnnevfrc"><rect x="189.99" y="127.78" width="2.9" height="17.49" style="fill: rgb(255, 199, 39); transform-origin: 191.44px 136.525px; transform: rotate(-45deg);" class="animable"></rect></g><g id="elq65957dn44o"><rect x="189.99" y="127.78" width="2.9" height="17.49" style="fill: rgb(255, 199, 39); transform-origin: 191.44px 136.525px; transform: rotate(-135deg);" class="animable"></rect></g><rect x="284.05" y="123.89" width="59.52" height="25.27" style="fill: rgb(38, 50, 56); transform-origin: 313.81px 136.525px;" id="el3u2nmjp2ilk" class="animable"></rect><g id="el9o4z9gwdt5h"><rect x="312.36" y="127.78" width="2.9" height="17.49" style="fill: rgb(255, 199, 39); transform-origin: 313.81px 136.525px; transform: rotate(-45deg);" class="animable"></rect></g><g id="elme2mt6j2uc"><rect x="312.36" y="127.78" width="2.9" height="17.49" style="fill: rgb(255, 199, 39); transform-origin: 313.81px 136.525px; transform: rotate(-135deg);" class="animable"></rect></g><rect x="406.43" y="123.89" width="59.52" height="25.27" style="fill: rgb(38, 50, 56); transform-origin: 436.19px 136.525px;" id="el7bmkxstrm57" class="animable"></rect><polygon points="442.25 136.59 430.13 136.59 436.19 129.66 442.25 136.59" style="fill: rgb(255, 255, 255); transform-origin: 436.19px 133.125px;" id="elpmuo6jrb7o" class="animable"></polygon><rect x="432.79" y="136.59" width="6.8" height="6.8" style="fill: rgb(255, 255, 255); transform-origin: 436.19px 139.99px;" id="eln3lnt0219sh" class="animable"></rect><rect x="528.8" y="123.89" width="59.52" height="25.27" style="fill: rgb(38, 50, 56); transform-origin: 558.56px 136.525px;" id="eln0zvi8nswci" class="animable"></rect><polygon points="564.62 136.59 552.5 136.59 558.56 129.66 564.62 136.59" style="fill: rgb(255, 255, 255); transform-origin: 558.56px 133.125px;" id="elcz0aplc29ut" class="animable"></polygon><rect x="555.16" y="136.59" width="6.8" height="6.8" style="fill: rgb(255, 255, 255); transform-origin: 558.56px 139.99px;" id="el9x8gxbvgd1" class="animable"></rect><rect x="182.45" y="102.3" width="17.98" height="17.98" style="fill: rgb(255, 199, 39); transform-origin: 191.44px 111.29px;" id="elih8lx34gew" class="animable"></rect><path d="M199.43,119.28h-16v-16h16Zm-15.24-.75h14.49V104.05H184.19Z" style="fill: rgb(255, 255, 255); transform-origin: 191.43px 111.28px;" id="el98425u4qdm" class="animable"></path><path d="M192.29,107.53v7.07a.67.67,0,0,1-.67.66.65.65,0,0,1-.66-.66v-5.9l-.48.28a.62.62,0,0,1-.34.09.65.65,0,0,1-.56-.33.64.64,0,0,1,.22-.9l1.47-.88,0,0s0,0,.06,0h.38a.12.12,0,0,1,.07,0h0s.05,0,.07,0l.05,0,.05,0,0,0a.11.11,0,0,1,0,.05l.05,0v0s0,0,0,0a.11.11,0,0,1,0,.06s0,0,0,.06,0,0,0,.06a.11.11,0,0,0,0,.08Z" style="fill: rgb(255, 255, 255); transform-origin: 190.884px 111.107px;" id="el72rf6hvrku4" class="animable"></path><rect x="304.82" y="102.3" width="17.98" height="17.98" style="fill: rgb(255, 199, 39); transform-origin: 313.81px 111.29px;" id="elfr1lgu8qe8k" class="animable"></rect><path d="M321.81,119.28h-16v-16h16Zm-15.24-.75h14.49V104.05H306.57Z" style="fill: rgb(255, 255, 255); transform-origin: 313.81px 111.28px;" id="el9yvse5jtli6" class="animable"></path><path d="M316.28,114.6a.65.65,0,0,1-.66.66h-4.27a.65.65,0,0,1-.49-.21.67.67,0,0,1,0-.94l3.55-3.21a1.56,1.56,0,0,0,.11-2.2,1.5,1.5,0,0,0-1.15-.5,1.58,1.58,0,0,0-1,.39l-.38.34a.64.64,0,0,1-.93-.05.65.65,0,0,1,.05-.93l.37-.34a2.88,2.88,0,0,1,4.06.2,2.81,2.81,0,0,1,.75,1.93,2.91,2.91,0,0,1-.95,2.14l-2.27,2.05h2.56A.66.66,0,0,1,316.28,114.6Z" style="fill: rgb(255, 255, 255); transform-origin: 313.479px 111.064px;" id="elzcs57zk13g" class="animable"></path><rect x="427.2" y="102.3" width="17.98" height="17.98" style="fill: rgb(255, 199, 39); transform-origin: 436.19px 111.29px;" id="elc4hp7sh9pk" class="animable"></rect><path d="M444.18,119.28h-16v-16h16Zm-15.24-.75h14.49V104.05H428.94Z" style="fill: rgb(255, 255, 255); transform-origin: 436.18px 111.28px;" id="elok8oiugiec" class="animable"></path><path d="M437.85,110.16a3,3,0,0,1-2.11,5.09,3,3,0,0,1-2.1-.88.68.68,0,0,1,1-1,1.56,1.56,0,0,0,1.14.47,1.6,1.6,0,0,0,1.15-.47,1.57,1.57,0,0,0,.48-1.15,1.55,1.55,0,0,0-.48-1.14,1.66,1.66,0,0,0-1.14-.48.58.58,0,0,1-.49-.21s0,0,0,0a.67.67,0,0,1,0-1l1.22-1.25h-1.94a.68.68,0,0,1,0-1.36H438a.68.68,0,0,1,.69.68.7.7,0,0,1-.09.32.66.66,0,0,1-.12.17L437,109.58A2.58,2.58,0,0,1,437.85,110.16Z" style="fill: rgb(255, 255, 255); transform-origin: 436.067px 111.015px;" id="elr9mlx2aw909" class="animable"></path><rect x="549.57" y="102.3" width="17.98" height="17.98" style="fill: rgb(255, 199, 39); transform-origin: 558.56px 111.29px;" id="elifpcqn2l4o" class="animable"></rect><path d="M566.56,119.28h-16v-16h16Zm-15.24-.75h14.49V104.05H551.32Z" style="fill: rgb(255, 255, 255); transform-origin: 558.56px 111.28px;" id="el9pjycy34nxc" class="animable"></path><path d="M561.77,113a.66.66,0,0,1-.67.66H561v.91a.66.66,0,1,1-1.32,0v-.91h-3.77a.62.62,0,0,1-.41-.14.65.65,0,0,1-.11-.93l4.44-5.51s0,0,0,0a.11.11,0,0,0,0,0l.06,0,.05,0a.12.12,0,0,1,.07,0s0,0,.05,0l.07,0h.31l.07,0h.05a.22.22,0,0,0,.06,0l.06,0a0,0,0,0,1,0,0s0,0,0,0l0,0s0,0,0,0a.16.16,0,0,1,0,.06.11.11,0,0,0,0,0l0,.07s0,0,0,0a.13.13,0,0,1,0,.07s0,0,0,.06v4.88h.12A.67.67,0,0,1,561.77,113Zm-2.11-3.62-2.38,3h2.38Z" style="fill: rgb(255, 255, 255); transform-origin: 558.521px 111.152px;" id="elrvxg9so4oe" class="animable"></path><rect x="123.1" y="181.93" width="14.3" height="96.9" style="fill: rgb(69, 90, 100); transform-origin: 130.25px 230.38px;" id="el4q5082q2baa" class="animable"></rect><rect x="245.48" y="181.93" width="14.3" height="96.9" style="fill: rgb(69, 90, 100); transform-origin: 252.63px 230.38px;" id="elftvjq0h31zu" class="animable"></rect><rect x="367.85" y="181.93" width="14.3" height="96.9" style="fill: rgb(69, 90, 100); transform-origin: 375px 230.38px;" id="elenied9j7vn6" class="animable"></rect><rect x="490.23" y="181.93" width="14.3" height="96.9" style="fill: rgb(69, 90, 100); transform-origin: 497.38px 230.38px;" id="eldmn8zyny85w" class="animable"></rect><rect x="612.6" y="181.93" width="14.3" height="96.9" style="fill: rgb(69, 90, 100); transform-origin: 619.75px 230.38px;" id="elj6ks4xgztt" class="animable"></rect><rect x="119.5" y="278.83" width="21.5" height="4.57" style="fill: rgb(55, 71, 79); transform-origin: 130.25px 281.115px;" id="eliehag6csgyb" class="animable"></rect><rect x="241.87" y="278.83" width="21.5" height="4.57" style="fill: rgb(55, 71, 79); transform-origin: 252.62px 281.115px;" id="elhgo2fo6k2ag" class="animable"></rect><rect x="364.25" y="278.83" width="21.5" height="4.57" style="fill: rgb(55, 71, 79); transform-origin: 375px 281.115px;" id="elhimliaqwru7" class="animable"></rect><rect x="486.62" y="278.83" width="21.5" height="4.57" style="fill: rgb(55, 71, 79); transform-origin: 497.37px 281.115px;" id="elodrme5kisgn" class="animable"></rect><rect x="609" y="278.83" width="21.5" height="4.57" style="fill: rgb(55, 71, 79); transform-origin: 619.75px 281.115px;" id="elvpt9np8jsl" class="animable"></rect><g id="ele9elw4bx5ys"><rect x="234.7" y="241.46" width="35.86" height="22.36" style="fill: rgb(219, 219, 219); opacity: 0.4; transform-origin: 252.63px 252.64px;" class="animable"></rect></g><rect x="234.7" y="221.98" width="35.86" height="19.48" style="fill: rgb(55, 71, 79); transform-origin: 252.63px 231.72px;" id="elkzmwqyltkvh" class="animable"></rect><polygon points="270.55 223.67 234.69 222.83 234.69 221.99 270.55 221.99 270.55 223.67" style="fill: rgb(38, 50, 56); transform-origin: 252.62px 222.83px;" id="elam4wbpsneek" class="animable"></polygon><rect x="232.78" y="219.16" width="39.68" height="2.83" style="fill: rgb(55, 71, 79); transform-origin: 252.62px 220.575px;" id="el6vgsprd0fkn" class="animable"></rect><g id="el1vnte8qsodz"><rect x="234.7" y="263.82" width="35.86" height="19.48" style="fill: rgb(55, 71, 79); transform-origin: 252.63px 273.56px; transform: rotate(180deg);" class="animable"></rect></g><polygon points="234.69 281.61 270.55 282.45 270.55 283.3 234.69 283.3 234.69 281.61" style="fill: rgb(38, 50, 56); transform-origin: 252.62px 282.455px;" id="elf73qzc07be" class="animable"></polygon><g id="eljdtblhpkvig"><rect x="232.78" y="283.3" width="39.68" height="2.83" style="fill: rgb(55, 71, 79); transform-origin: 252.62px 284.715px; transform: rotate(180deg);" class="animable"></rect></g><g id="eld5l0smfa35q"><g style="opacity: 0.4; transform-origin: 252.625px 252.64px;" class="animable"><polygon points="257.11 241.46 253.32 241.46 234.69 263.82 238.48 263.82 257.11 241.46" style="fill: rgb(219, 219, 219); transform-origin: 245.9px 252.64px;" id="elbmpqjwl65cu" class="animable"></polygon><polygon points="270.56 247.04 270.56 249.38 258.53 263.81 256.59 263.81 270.56 247.04" style="fill: rgb(219, 219, 219); transform-origin: 263.575px 255.425px;" id="elevlqsd9rjpo" class="animable"></polygon><polygon points="251.17 241.47 234.7 261.24 234.7 260.51 250.57 241.47 251.17 241.47" style="fill: rgb(219, 219, 219); transform-origin: 242.935px 251.355px;" id="eleljl2pasaov" class="animable"></polygon><polygon points="270.56 254.57 270.56 255.29 263.46 263.81 262.86 263.81 270.56 254.57" style="fill: rgb(219, 219, 219); transform-origin: 266.71px 259.19px;" id="elbib5ols6q14" class="animable"></polygon></g></g><rect x="261.97" y="241.46" width="4.09" height="22.36" style="fill: rgb(55, 71, 79); transform-origin: 264.015px 252.64px;" id="elghlcbo2nl1q" class="animable"></rect><rect x="228.43" y="286.13" width="48.38" height="3.89" style="fill: rgb(219, 219, 219); transform-origin: 252.62px 288.075px;" id="el70tvl2oo70l" class="animable"></rect><g id="eljqd4473c9dr"><rect x="357.07" y="241.46" width="35.86" height="22.36" style="fill: rgb(219, 219, 219); opacity: 0.4; transform-origin: 375px 252.64px;" class="animable"></rect></g><rect x="357.07" y="221.98" width="35.86" height="19.48" style="fill: rgb(55, 71, 79); transform-origin: 375px 231.72px;" id="elltvvkxcgjvk" class="animable"></rect><polygon points="392.93 223.67 357.07 222.83 357.07 221.99 392.93 221.99 392.93 223.67" style="fill: rgb(38, 50, 56); transform-origin: 375px 222.83px;" id="elu7m55ddaby" class="animable"></polygon><rect x="355.16" y="219.16" width="39.68" height="2.83" style="fill: rgb(55, 71, 79); transform-origin: 375px 220.575px;" id="elw7v6ca0ezc8" class="animable"></rect><g id="el1hs1uskkewf"><rect x="357.07" y="263.82" width="35.86" height="19.48" style="fill: rgb(55, 71, 79); transform-origin: 375px 273.56px; transform: rotate(180deg);" class="animable"></rect></g><polygon points="357.07 281.61 392.93 282.45 392.93 283.3 357.07 283.3 357.07 281.61" style="fill: rgb(38, 50, 56); transform-origin: 375px 282.455px;" id="elgjlwc5zxe2" class="animable"></polygon><g id="el8dcky0hmv4e"><rect x="355.16" y="283.3" width="39.68" height="2.83" style="fill: rgb(55, 71, 79); transform-origin: 375px 284.715px; transform: rotate(180deg);" class="animable"></rect></g><g id="eldrkx8q789sq"><g style="opacity: 0.4; transform-origin: 375px 252.64px;" class="animable"><polygon points="379.48 241.46 375.69 241.46 357.07 263.82 360.86 263.82 379.48 241.46" style="fill: rgb(219, 219, 219); transform-origin: 368.275px 252.64px;" id="el1ngqsae9xaq" class="animable"></polygon><polygon points="392.93 247.04 392.93 249.38 380.9 263.81 378.96 263.81 392.93 247.04" style="fill: rgb(219, 219, 219); transform-origin: 385.945px 255.425px;" id="elckw31kzccr" class="animable"></polygon><polygon points="373.54 241.47 357.07 261.24 357.07 260.51 372.94 241.47 373.54 241.47" style="fill: rgb(219, 219, 219); transform-origin: 365.305px 251.355px;" id="el0edww3onaewi" class="animable"></polygon><polygon points="392.93 254.57 392.93 255.29 385.83 263.81 385.23 263.81 392.93 254.57" style="fill: rgb(219, 219, 219); transform-origin: 389.08px 259.19px;" id="elli4awkyok4" class="animable"></polygon></g></g><rect x="384.35" y="241.46" width="4.09" height="22.36" style="fill: rgb(55, 71, 79); transform-origin: 386.395px 252.64px;" id="el7ldoxxchgs5" class="animable"></rect><rect x="350.81" y="286.13" width="48.38" height="3.89" style="fill: rgb(219, 219, 219); transform-origin: 375px 288.075px;" id="el7m17hcni7dl" class="animable"></rect><g id="elm5nagsgn43"><rect x="479.45" y="241.46" width="35.86" height="22.36" style="fill: rgb(219, 219, 219); opacity: 0.4; transform-origin: 497.38px 252.64px;" class="animable"></rect></g><rect x="479.45" y="221.98" width="35.86" height="19.48" style="fill: rgb(55, 71, 79); transform-origin: 497.38px 231.72px;" id="elpymb6b2cswq" class="animable"></rect><polygon points="515.3 223.67 479.45 222.83 479.45 221.99 515.3 221.99 515.3 223.67" style="fill: rgb(38, 50, 56); transform-origin: 497.375px 222.83px;" id="elueib9srsgee" class="animable"></polygon><rect x="477.53" y="219.16" width="39.68" height="2.83" style="fill: rgb(55, 71, 79); transform-origin: 497.37px 220.575px;" id="elru9k63a15is" class="animable"></rect><g id="eln7nb1800foj"><rect x="479.45" y="263.82" width="35.86" height="19.48" style="fill: rgb(55, 71, 79); transform-origin: 497.38px 273.56px; transform: rotate(180deg);" class="animable"></rect></g><polygon points="479.45 281.61 515.3 282.45 515.3 283.3 479.45 283.3 479.45 281.61" style="fill: rgb(38, 50, 56); transform-origin: 497.375px 282.455px;" id="elpdsnor476gj" class="animable"></polygon><g id="el32zftz27rxt"><rect x="477.53" y="283.3" width="39.68" height="2.83" style="fill: rgb(55, 71, 79); transform-origin: 497.37px 284.715px; transform: rotate(180deg);" class="animable"></rect></g><g id="elpkj0dm5prxm"><g style="opacity: 0.4; transform-origin: 497.38px 252.64px;" class="animable"><polygon points="501.86 241.46 498.07 241.46 479.45 263.82 483.23 263.82 501.86 241.46" style="fill: rgb(219, 219, 219); transform-origin: 490.655px 252.64px;" id="elvri9qyiw5l" class="animable"></polygon><polygon points="515.31 247.04 515.31 249.38 503.28 263.81 501.34 263.81 515.31 247.04" style="fill: rgb(219, 219, 219); transform-origin: 508.325px 255.425px;" id="elnlwtxijvbpi" class="animable"></polygon><polygon points="495.92 241.47 479.45 261.24 479.45 260.51 495.32 241.47 495.92 241.47" style="fill: rgb(219, 219, 219); transform-origin: 487.685px 251.355px;" id="el7po6d9pmywu" class="animable"></polygon><polygon points="515.31 254.57 515.31 255.29 508.21 263.81 507.61 263.81 515.31 254.57" style="fill: rgb(219, 219, 219); transform-origin: 511.46px 259.19px;" id="el7djohi6vomv" class="animable"></polygon></g></g><rect x="506.72" y="241.46" width="4.09" height="22.36" style="fill: rgb(55, 71, 79); transform-origin: 508.765px 252.64px;" id="eleealon6eftl" class="animable"></rect><rect x="473.18" y="286.13" width="48.38" height="3.89" style="fill: rgb(219, 219, 219); transform-origin: 497.37px 288.075px;" id="eled4kjfrj9ee" class="animable"></rect><rect x="178.73" y="167.69" width="25.41" height="13.34" style="fill: rgb(38, 50, 56); transform-origin: 191.435px 174.36px;" id="el7bfhaxzhkj" class="animable"></rect><rect x="192.49" y="169.56" width="9.6" height="9.6" style="fill: rgb(55, 71, 79); transform-origin: 197.29px 174.36px;" id="el6s9qqfjl0q3" class="animable"></rect><path d="M201,174.36a3.73,3.73,0,1,1-3.73-3.74A3.73,3.73,0,0,1,201,174.36Z" style="fill: rgb(38, 50, 56); transform-origin: 197.27px 174.35px;" id="el9ghkygbz4aw" class="animable"></path><rect x="180.79" y="169.56" width="9.6" height="9.6" style="fill: rgb(55, 71, 79); transform-origin: 185.59px 174.36px;" id="eln3itffd4nue" class="animable"></rect><path d="M189.32,174.36a3.74,3.74,0,1,1-3.73-3.74A3.73,3.73,0,0,1,189.32,174.36Z" style="fill: rgb(38, 50, 56); transform-origin: 185.58px 174.36px;" id="el164cct959zgj" class="animable"></path><rect x="301.11" y="167.69" width="25.41" height="13.34" style="fill: rgb(38, 50, 56); transform-origin: 313.815px 174.36px;" id="ele3kmouu967" class="animable"></rect><rect x="314.86" y="169.56" width="9.6" height="9.6" style="fill: rgb(55, 71, 79); transform-origin: 319.66px 174.36px;" id="elpdk7qxa328m" class="animable"></rect><path d="M323.4,174.36a3.74,3.74,0,1,1-3.74-3.74A3.74,3.74,0,0,1,323.4,174.36Z" style="fill: rgb(38, 50, 56); transform-origin: 319.66px 174.36px;" id="el5ydt5zhfeyn" class="animable"></path><rect x="303.16" y="169.56" width="9.6" height="9.6" style="fill: rgb(55, 71, 79); transform-origin: 307.96px 174.36px;" id="elzz9bzrx4lw" class="animable"></rect><path d="M311.69,174.36a3.73,3.73,0,1,1-3.73-3.74A3.73,3.73,0,0,1,311.69,174.36Z" style="fill: rgb(38, 50, 56); transform-origin: 307.96px 174.35px;" id="ellm01op7ck37" class="animable"></path><rect x="423.48" y="167.69" width="25.41" height="13.34" style="fill: rgb(38, 50, 56); transform-origin: 436.185px 174.36px;" id="el5j200ktzid" class="animable"></rect><rect x="437.24" y="169.56" width="9.6" height="9.6" style="fill: rgb(55, 71, 79); transform-origin: 442.04px 174.36px;" id="eltws7g4qupao" class="animable"></rect><path d="M445.77,174.36a3.73,3.73,0,1,1-3.73-3.74A3.73,3.73,0,0,1,445.77,174.36Z" style="fill: rgb(38, 50, 56); transform-origin: 442.04px 174.35px;" id="elngu0zfs04b" class="animable"></path><rect x="425.54" y="169.56" width="9.6" height="9.6" style="fill: rgb(55, 71, 79); transform-origin: 430.34px 174.36px;" id="elm5cu3thvwap" class="animable"></rect><path d="M434.07,174.36a3.74,3.74,0,1,1-3.73-3.74A3.73,3.73,0,0,1,434.07,174.36Z" style="fill: rgb(255, 199, 39); transform-origin: 430.33px 174.36px;" id="elpyzv3al5dfh" class="animable"></path><rect x="545.86" y="167.69" width="25.41" height="13.34" style="fill: rgb(38, 50, 56); transform-origin: 558.565px 174.36px;" id="elw21y4ae9a4o" class="animable"></rect><rect x="559.61" y="169.56" width="9.6" height="9.6" style="fill: rgb(55, 71, 79); transform-origin: 564.41px 174.36px;" id="elusfmbwi85op" class="animable"></rect><path d="M568.15,174.36a3.74,3.74,0,1,1-3.74-3.74A3.74,3.74,0,0,1,568.15,174.36Z" style="fill: rgb(255, 255, 255); transform-origin: 564.41px 174.36px;" id="elvd84suiml5" class="animable"></path><rect x="547.91" y="169.56" width="9.6" height="9.6" style="fill: rgb(55, 71, 79); transform-origin: 552.71px 174.36px;" id="el012tdp99cdd1l" class="animable"></rect><path d="M556.44,174.36a3.73,3.73,0,1,1-3.73-3.74A3.73,3.73,0,0,1,556.44,174.36Z" style="fill: rgb(38, 50, 56); transform-origin: 552.71px 174.35px;" id="elufarmvp0u1" class="animable"></path></g><g id="freepik--car-3--inject-34" class="animable" style="transform-origin: 574.887px 273.86px;"><g id="elzzc49eosgu"><rect x="602.2" y="279.15" width="11.04" height="25.44" rx="3.98" style="fill: rgb(38, 50, 56); transform-origin: 607.72px 291.87px; transform: rotate(180deg);" class="animable"></rect></g><rect x="536.58" y="279.15" width="11.04" height="25.44" rx="3.98" style="fill: rgb(38, 50, 56); transform-origin: 542.1px 291.87px;" id="el6zvqee10bux" class="animable"></rect><path d="M545,257.57a7.78,7.78,0,0,1-2.14-.78c-.32-.36-1.71-1.86-2.11-1.86-1.5,0-5.46.81-6.68,1.75-.66.51.72,3,1.5,3.54s4.72.64,5.47.35a8,8,0,0,0,2-1.57l2,.22Z" style="fill: rgb(255, 199, 39); transform-origin: 539.468px 257.83px;" id="elg4bces36b7" class="animable"></path><path d="M540.6,255.62a4.57,4.57,0,0,1,1.27,1.95,4.25,4.25,0,0,1-1.15,2.28c-.4.13-4.09.36-4.7,0s-1.61-2.26-1.4-2.65C535,256.57,539.53,255.27,540.6,255.62Z" style="fill: rgb(255, 255, 255); transform-origin: 538.231px 257.802px;" id="elr8fdmc2fuvl" class="animable"></path><path d="M604.77,257.57a7.78,7.78,0,0,0,2.14-.78c.32-.36,1.71-1.86,2.11-1.86,1.5,0,5.46.81,6.68,1.75.67.51-.71,3-1.5,3.54s-4.72.64-5.47.35a8,8,0,0,1-2-1.57l-2,.22Z" style="fill: rgb(255, 199, 39); transform-origin: 610.304px 257.83px;" id="elubjdlzyvca" class="animable"></path><path d="M609.22,255.62a4.68,4.68,0,0,0-1.28,1.95,4.2,4.2,0,0,0,1.16,2.28c.4.13,4.08.36,4.7,0s1.6-2.26,1.39-2.65C614.86,256.57,610.29,255.27,609.22,255.62Z" style="fill: rgb(255, 255, 255); transform-origin: 611.579px 257.802px;" id="elkbac8xoalli" class="animable"></path><path d="M607.48,292.47H542.33s-.53-30.47,0-31.63,7.33-17.71,9.22-17.71h46.71c1.9,0,8.7,16.55,9.22,17.71S607.48,292.47,607.48,292.47Z" style="fill: rgb(255, 199, 39); transform-origin: 574.903px 267.8px;" id="elenhoaajg18h" class="animable"></path><path d="M614,289.41c-.53.85-4.43,3.06-6.54,3.06H542.33c-2.11,0-6-2.21-6.54-3.06s0-22.88,0-23.51,5.49-5.06,6.54-5.06l32.58-.1,32.57.1c1.06,0,6.54,4.43,6.54,5.06S614.55,288.57,614,289.41Z" style="fill: rgb(255, 199, 39); transform-origin: 574.9px 276.605px;" id="eldrbo5dnfzbp" class="animable"></path><path d="M614.5,289.15c-.48.9-4.64,3.32-6.44,3.32H541.75c-1.79,0-6-2.42-6.43-3.32s-.58-6.38-.26-6.38H558.5c.51,0,1.85-2.23,2.82-2.23h27.17c1,0,2.31,2.23,2.82,2.23h23.45C615.08,282.77,615,288.25,614.5,289.15Z" style="fill: rgb(55, 71, 79); transform-origin: 574.919px 286.505px;" id="el311qtkmbgrl" class="animable"></path><path d="M543.17,288.13a2.59,2.59,0,1,1-2.59-2.59A2.59,2.59,0,0,1,543.17,288.13Z" style="fill: rgb(69, 90, 100); transform-origin: 540.58px 288.13px;" id="elq4deq9syigq" class="animable"></path><path d="M544.78,284.22H539.4a.67.67,0,0,1-.67-.67h0a1.76,1.76,0,0,1,1.76-1.76h4.61a.62.62,0,0,1,.62.62v.87A.94.94,0,0,1,544.78,284.22Z" style="fill: rgb(255, 255, 255); transform-origin: 542.225px 283.005px;" id="elhe7p4fr1e4" class="animable"></path><path d="M611.58,265.74H538.23l0-.07c.3-.78,5.16-4.67,6.11-4.67l30.55-.1,30.54.1c1,0,5.81,3.89,6.12,4.67Z" style="fill: rgb(38, 50, 56); transform-origin: 574.905px 263.32px;" id="eldu2kdbhixz" class="animable"></path><rect x="564.42" y="282.24" width="20.98" height="3.96" style="fill: rgb(255, 255, 255); transform-origin: 574.91px 284.22px;" id="eldt7gofs95o" class="animable"></rect><rect x="571.32" y="271.83" width="7.17" height="1.21" style="fill: rgb(55, 71, 79); transform-origin: 574.905px 272.435px;" id="elkgdfovkb2hn" class="animable"></rect><path d="M606.64,288.13a2.6,2.6,0,1,0,2.59-2.59A2.59,2.59,0,0,0,606.64,288.13Z" style="fill: rgb(69, 90, 100); transform-origin: 609.24px 288.14px;" id="elghm3t256ml" class="animable"></path><path d="M605,284.22h5.37a.67.67,0,0,0,.67-.67h0a1.76,1.76,0,0,0-1.76-1.76h-4.6a.62.62,0,0,0-.62.62v.87A.94.94,0,0,0,605,284.22Z" style="fill: rgb(255, 255, 255); transform-origin: 607.55px 283.005px;" id="el5q2vsjkp92k" class="animable"></path><path d="M602,259.15H547.81c-.74,0,4.28-13,5-13.38.26-.15,22.14-.13,22.14-.13s21.87,0,22.14.13C597.72,246.13,602.74,259.15,602,259.15Z" style="fill: rgb(38, 50, 56); transform-origin: 574.905px 252.395px;" id="el60tktsazwdk" class="animable"></path><path d="M599.79,255.87c0,.31-1.48,2.28-1.85,2.28H551.87c-.37,0-1.84-2-1.84-2.28s3.21-8.63,3.42-8.84,21.46-.29,21.46-.29,21.24.08,21.45.29S599.79,255.55,599.79,255.87Z" style="fill: rgb(55, 71, 79); transform-origin: 574.91px 252.445px;" id="elh88px4h1bz6" class="animable"></path><g id="elxx6x6e24rfb"><g style="opacity: 0.1; transform-origin: 574.35px 252.455px;" class="animable"><path d="M562.09,246.83l-10.83,10.83a6.14,6.14,0,0,1-1.23-1.8c0-.14.67-2,1.41-3.89l5.07-5.07C558,246.87,560,246.85,562.09,246.83Z" style="fill: rgb(255, 255, 255); transform-origin: 556.06px 252.245px;" id="eleb7potraljr" class="animable"></path><path d="M598,251.12l-7,7h-5.51l11-11C596.7,247.71,597.36,249.38,598,251.12Z" style="fill: rgb(255, 255, 255); transform-origin: 591.745px 252.62px;" id="elfld1crbcmrt" class="animable"></path><path d="M580,246.77l-11.39,11.39H568l11.39-11.4Z" style="fill: rgb(255, 255, 255); transform-origin: 574px 252.46px;" id="elxspvpiw2r" class="animable"></path><path d="M598.67,252.75l-5.4,5.41h-.65l5.88-5.88Z" style="fill: rgb(255, 255, 255); transform-origin: 595.645px 255.22px;" id="elmysf6uamiv" class="animable"></path><path d="M591.22,246.87l-11.28,11.29h-2.47l11.32-11.32Z" style="fill: rgb(255, 255, 255); transform-origin: 584.345px 252.5px;" id="el02tqzvopf154" class="animable"></path><path d="M576.13,246.75l-11.41,11.41h-2.46l11.41-11.41h2.46Z" style="fill: rgb(255, 255, 255); transform-origin: 569.195px 252.455px;" id="elcw8wlijwf9" class="animable"></path></g></g><path d="M577.31,258.15h-4.8a6.54,6.54,0,0,1,.44-1.06,6.48,6.48,0,0,1,2-.32,6.34,6.34,0,0,1,2,.32A6.72,6.72,0,0,1,577.31,258.15Z" style="fill: rgb(38, 50, 56); transform-origin: 574.91px 257.46px;" id="elmth0kc0n36" class="animable"></path><path d="M574.53,257.14s2.88-.58,3.15-.58,11.56.58,11.56.58v.23l-11.11-.23c-.18,0-3.6.76-3.6.76Z" style="fill: rgb(38, 50, 56); transform-origin: 581.885px 257.23px;" id="elf6dys9a0r8b" class="animable"></path><g id="elmy1ebslwh3k"><path d="M538.43,265.69a13.78,13.78,0,0,0-1.27,5.27,5.62,5.62,0,0,0,.55,2.62,22.32,22.32,0,0,0,1.52,2.26,14.38,14.38,0,0,0,1.78,2,2.46,2.46,0,0,0,1.11.66c.42,0,.9,0,1.35,0l5.46,0,21.85,0c7.28,0,14.56,0,21.84,0l10.93,0h4.09a1.66,1.66,0,0,0,1.15-.51,12.35,12.35,0,0,0,1.81-2c.55-.72,1.06-1.47,1.54-2.24h0a3.54,3.54,0,0,0,.47-1.94,13.11,13.11,0,0,0-.15-2.07,30.2,30.2,0,0,0-.9-4.07,29.7,29.7,0,0,1,1,4.06,13.08,13.08,0,0,1,.2,2.08,3.58,3.58,0,0,1-.47,2.06h0c-.48.78-1,1.53-1.54,2.27a13.7,13.7,0,0,1-1.84,2.05,4,4,0,0,1-.58.4,2,2,0,0,1-.34.13,1.63,1.63,0,0,1-.37,0h-4.09l-10.93,0c-7.28,0-14.56.05-21.84,0l-21.85-.06h-5.46c-.46,0-.9,0-1.38,0a2.55,2.55,0,0,1-1.21-.71,14.15,14.15,0,0,1-1.78-2.09,23.12,23.12,0,0,1-1.5-2.29,5.79,5.79,0,0,1-.52-2.68A13.61,13.61,0,0,1,538.43,265.69Z" style="opacity: 0.2; transform-origin: 574.912px 272.206px;" class="animable"></path></g><path d="M540.61,268.3c.76,0,7.61,2.91,7.92,3.15s1.4,2.57,1.06,2.89-5.06.56-6.52.56-5.69.07-6.43-.28.41-3.37.94-4.07C538.27,269.64,539.75,268.33,540.61,268.3Z" style="fill: rgb(255, 255, 255); transform-origin: 543.027px 271.603px;" id="el35h58u3p9a" class="animable"></path><path d="M540.61,268.3a12.46,12.46,0,0,1,2,.61c.64.24,1.28.48,1.92.74,1.28.5,2.56,1,3.83,1.55l.24.12a.64.64,0,0,1,.13.1l.09.12c.1.15.19.3.28.45a9,9,0,0,1,.45.94,4.77,4.77,0,0,1,.33,1,.93.93,0,0,1,0,.33.39.39,0,0,1-.13.21.81.81,0,0,1-.18.1,2.73,2.73,0,0,1-.53.13,36.2,36.2,0,0,1-4.13.37c-1.38.07-2.76,0-4.13,0-.69,0-1.38,0-2.07-.08-.34,0-.69-.05-1-.09a4.15,4.15,0,0,1-1.06-.21.63.63,0,0,1-.29-.54,2.42,2.42,0,0,1,0-.54,6.8,6.8,0,0,1,.26-1,9.44,9.44,0,0,1,.83-1.9,7.17,7.17,0,0,1,1.42-1.49,7.08,7.08,0,0,1,.83-.61A2.42,2.42,0,0,1,540.61,268.3Zm0,0a2.34,2.34,0,0,0-1,.36,6.33,6.33,0,0,0-.83.61,7.31,7.31,0,0,0-1.37,1.52,10,10,0,0,0-.74,1.9,7.08,7.08,0,0,0-.2,1,2,2,0,0,0,0,.49c0,.15.08.29.17.32a3.72,3.72,0,0,0,1,.15l1,0c.69,0,1.37,0,2.06,0,1.37,0,2.74,0,4.1-.09s2.75-.12,4.09-.29l.46-.09.05,0h0a.34.34,0,0,0,0-.18,4.17,4.17,0,0,0-.25-.95,9.64,9.64,0,0,0-.4-.93,3,3,0,0,0-.24-.43c0-.07-.08-.13-.14-.16l-.21-.11c-1.22-.61-2.48-1.17-3.74-1.72-.63-.27-1.26-.53-1.9-.78A12.1,12.1,0,0,0,540.61,268.3Z" style="fill: rgb(235, 235, 235); transform-origin: 543.12px 271.701px;" id="elimvvw3htdz" class="animable"></path><path d="M609.2,268.3c-.75,0-7.61,2.91-7.92,3.15s-1.4,2.57-1.06,2.89,5.06.56,6.52.56,5.69.07,6.44-.28-.41-3.37-.95-4.07C611.55,269.64,610.06,268.33,609.2,268.3Z" style="fill: rgb(255, 255, 255); transform-origin: 606.79px 271.603px;" id="elk1277u9apj" class="animable"></path><path d="M609.2,268.3a12,12,0,0,0-2,.63c-.64.25-1.28.51-1.91.78-1.26.55-2.52,1.11-3.74,1.72l-.21.11c-.06,0-.08.09-.14.16s-.16.28-.24.43a9.64,9.64,0,0,0-.4.93,4.76,4.76,0,0,0-.25.95.92.92,0,0,0,0,.18h0l0,0,.47.09c1.34.17,2.71.23,4.08.29s2.73.07,4.11.09c.68,0,1.37,0,2,0l1,0a3.72,3.72,0,0,0,1-.15c.09,0,.15-.17.17-.32a1.61,1.61,0,0,0,0-.49,5.9,5.9,0,0,0-.2-1,8.81,8.81,0,0,0-.74-1.9,7.27,7.27,0,0,0-1.36-1.52,8,8,0,0,0-.83-.61A2.39,2.39,0,0,0,609.2,268.3Zm0,0a2.32,2.32,0,0,1,1,.35,8.37,8.37,0,0,1,2.25,2.1,10.08,10.08,0,0,1,.84,1.9,5.74,5.74,0,0,1,.25,1,2.42,2.42,0,0,1,0,.54.64.64,0,0,1-.3.54,4.07,4.07,0,0,1-1.05.21c-.35,0-.69.07-1,.09-.69,0-1.37.07-2.06.08-1.37,0-2.75.05-4.13,0a36,36,0,0,1-4.13-.37,2.82,2.82,0,0,1-.54-.13l-.18-.1a.57.57,0,0,1-.13-.21,1.21,1.21,0,0,1,0-.33,4.76,4.76,0,0,1,.32-1c.14-.32.29-.63.46-.94a3.68,3.68,0,0,1,.28-.45l.09-.12a1.06,1.06,0,0,1,.12-.1l.25-.12c1.26-.56,2.54-1.05,3.82-1.55.64-.26,1.28-.5,1.93-.74A12,12,0,0,1,609.2,268.3Z" style="fill: rgb(235, 235, 235); transform-origin: 606.782px 271.716px;" id="eldbu8ntbeoi9" class="animable"></path></g><g id="freepik--car-2--inject-34" class="animable" style="transform-origin: 442.935px 291.401px;"><g id="elid4x9ll45u"><rect x="468.77" y="299.3" width="10.99" height="25.34" rx="2.93" style="fill: rgb(38, 50, 56); transform-origin: 474.265px 311.97px; transform: rotate(180deg);" class="animable"></rect></g><rect x="406.05" y="299.3" width="10.99" height="25.34" rx="2.93" style="fill: rgb(38, 50, 56); transform-origin: 411.545px 311.97px;" id="eleizaeg1g5vt" class="animable"></rect><path d="M421.44,263.15a29.8,29.8,0,0,1,2.16-4.35,2.41,2.41,0,0,1,1.92-.62c.54.26,1,3.18,1,3.18l-.75.29s-.27-2.6-.54-2.7a1.48,1.48,0,0,0-1,.46c-.23.31-1.43,3.74-1.43,3.74Z" style="fill: rgb(38, 50, 56); transform-origin: 423.98px 260.656px;" id="eltndwo6qlezm" class="animable"></path><path d="M464.38,263.15a29.8,29.8,0,0,0-2.16-4.35,2.41,2.41,0,0,0-1.92-.62c-.54.26-1,3.18-1,3.18l.75.29s.27-2.6.54-2.7a1.48,1.48,0,0,1,1,.46c.23.31,1.43,3.74,1.43,3.74Z" style="fill: rgb(38, 50, 56); transform-origin: 461.84px 260.656px;" id="elm9lud5t361" class="animable"></path><path d="M415,276.58a7.74,7.74,0,0,1-2.13-.78c-.32-.36-1.71-1.85-2.1-1.85-1.5,0-5.44.8-6.66,1.74-.66.52.71,2.95,1.5,3.52s4.69.64,5.44.36a8,8,0,0,0,2-1.57l2,.22Z" style="fill: rgb(69, 90, 100); transform-origin: 409.493px 276.84px;" id="elyt9t38py8x" class="animable"></path><path d="M410.52,274.63a4.66,4.66,0,0,1,1.27,1.95,4.22,4.22,0,0,1-1.15,2.27c-.4.13-4.07.36-4.68,0s-1.6-2.25-1.39-2.64C404.9,275.58,409.45,274.29,410.52,274.63Z" style="fill: rgb(255, 255, 255); transform-origin: 408.166px 276.808px;" id="elezsg11yva" class="animable"></path><path d="M470.87,276.58a7.74,7.74,0,0,0,2.13-.78c.33-.36,1.71-1.85,2.1-1.85,1.5,0,5.44.8,6.66,1.74.66.52-.71,2.95-1.5,3.52s-4.69.64-5.44.36a8,8,0,0,1-2-1.57l-2,.22Z" style="fill: rgb(69, 90, 100); transform-origin: 476.377px 276.84px;" id="elc146gdguveb" class="animable"></path><path d="M475.3,274.63a4.66,4.66,0,0,0-1.27,1.95,4.22,4.22,0,0,0,1.15,2.27c.4.13,4.07.36,4.68,0s1.6-2.25,1.39-2.64C480.92,275.58,476.37,274.29,475.3,274.63Z" style="fill: rgb(255, 255, 255); transform-origin: 477.654px 276.808px;" id="el5fwxzt550mb" class="animable"></path><path d="M480.77,308.86c-.12,1.42-4.26,4-7,4H412c-2.71,0-6.85-2.59-7-4s1.43-17.7,1.95-20,4.9-7,5.55-7.75,5.3-15.9,7.75-18,13.18-2.84,22.62-2.84,20.16.77,22.61,2.84,7.12,17.19,7.76,18,5,5.43,5.56,7.75S480.9,307.44,480.77,308.86Z" style="fill: rgb(69, 90, 100); transform-origin: 442.884px 286.565px;" id="ellqabvg7x53l" class="animable"></path><path d="M480.79,309.57c-.72.46-3.37,3.3-7,3.3H412c-3.62,0-6.27-2.84-7-3.3s-.32-4.26.23-4.72,19.61-.19,20.13-.19,3.42-2.78,4.91-2.78h25.2c1.49,0,4.39,2.78,4.91,2.78s19.58-.28,20.13.19S481.5,309.11,480.79,309.57Z" style="fill: rgb(38, 50, 56); transform-origin: 442.883px 307.375px;" id="elk3kgp7jcdo" class="animable"></path><path d="M468.76,276.16h-51.7c-.51,0,2.78-10.33,5-11.82S437.22,262,442.91,262s18.67.84,20.87,2.32S469.27,276.16,468.76,276.16Z" style="fill: rgb(38, 50, 56); transform-origin: 442.91px 269.08px;" id="elm9uakyp080s" class="animable"></path><path d="M467.17,273.17a7.12,7.12,0,0,1-1.58,2.09c-.19,0-22.68,0-22.68,0s-22.49,0-22.68,0a6.92,6.92,0,0,1-1.57-2.09c0-.25,2.85-7.52,4.09-8.26S433.67,263,442.91,263s18.92,1.18,20.16,1.93S467.12,272.92,467.17,273.17Z" style="fill: rgb(55, 71, 79); transform-origin: 442.915px 269.13px;" id="el5x9wzvnceau" class="animable"></path><g id="elz62bwjk5h4"><g style="opacity: 0.1; transform-origin: 442.62px 269.145px;" class="animable"><path d="M432.48,263.42l-11.84,11.84h-.41a7.12,7.12,0,0,1-1.58-2.09c0-.09.38-1.05.9-2.3l6.77-6.77C428,263.85,430.11,263.61,432.48,263.42Z" style="fill: rgb(255, 255, 255); transform-origin: 425.565px 269.34px;" id="eln1rwlgwuefo" class="animable"></path><path d="M464.67,267.32l-7.95,7.95h-5.48L462,264.55a4.42,4.42,0,0,1,1.11.36A7.38,7.38,0,0,1,464.67,267.32Z" style="fill: rgb(255, 255, 255); transform-origin: 457.955px 269.91px;" id="elczdxeam3zcn" class="animable"></path><path d="M439.62,263l-12.24,12.24h-.64L439,263.05Z" style="fill: rgb(255, 255, 255); transform-origin: 433.18px 269.12px;" id="eldic8tl770x8" class="animable"></path><path d="M466.59,271.65,463,275.27h-.65l4.08-4.08C466.46,271.35,466.53,271.51,466.59,271.65Z" style="fill: rgb(255, 255, 255); transform-origin: 464.47px 273.23px;" id="eleubsibdcqbq" class="animable"></path><path d="M460.67,264.29l-11,11h-2.46L458.54,264C459.34,264.07,460.06,264.18,460.67,264.29Z" style="fill: rgb(255, 255, 255); transform-origin: 453.94px 269.645px;" id="el5ly8u157hs4" class="animable"></path><path d="M451.5,263.28l-12,12h-2.45l12.12-12.12Z" style="fill: rgb(255, 255, 255); transform-origin: 444.275px 269.22px;" id="elupwygp1syc" class="animable"></path></g></g><path d="M445.77,275h-5.72a7.59,7.59,0,0,1,.53-1.27,7.16,7.16,0,0,1,4.66,0A7.59,7.59,0,0,1,445.77,275Z" style="fill: rgb(38, 50, 56); transform-origin: 442.91px 274.17px;" id="elr5gzugf76u" class="animable"></path><path d="M443.57,273.71s-3.28-1.25-3.6-1.31-13.72-1.59-13.72-1.59l0,.26L439.33,273c.21,0,4.09,1.6,4.09,1.6Z" style="fill: rgb(38, 50, 56); transform-origin: 434.91px 272.705px;" id="elrn9wea5j7vs" class="animable"></path><path d="M413.09,308.44a2.59,2.59,0,1,1-2.59-2.58A2.58,2.58,0,0,1,413.09,308.44Z" style="fill: rgb(199, 199, 199); transform-origin: 410.5px 308.45px;" id="ellb2ukpsuks" class="animable"></path><path d="M418.17,302.78h-5.36a.67.67,0,0,1-.67-.66h0a1.76,1.76,0,0,1,1.75-1.76h4.59a.62.62,0,0,1,.62.62v.87A.93.93,0,0,1,418.17,302.78Z" style="fill: rgb(255, 255, 255); transform-origin: 415.62px 301.57px;" id="el6t4is91vm6n" class="animable"></path><rect x="433.15" y="303.5" width="19.51" height="3.56" style="fill: rgb(255, 255, 255); transform-origin: 442.905px 305.28px;" id="elmpszm3y8lqf" class="animable"></rect><path d="M472.73,308.44a2.59,2.59,0,1,0,2.59-2.58A2.58,2.58,0,0,0,472.73,308.44Z" style="fill: rgb(199, 199, 199); transform-origin: 475.32px 308.45px;" id="el3k496iausq5" class="animable"></path><path d="M467.65,302.78H473a.67.67,0,0,0,.67-.66h0a1.76,1.76,0,0,0-1.75-1.76h-4.59a.62.62,0,0,0-.62.62v.87A.93.93,0,0,0,467.65,302.78Z" style="fill: rgb(255, 255, 255); transform-origin: 470.19px 301.57px;" id="el0d7uv7qy7ek" class="animable"></path><g id="elp7iqvrgm1o"><path d="M412.58,281.05a35.07,35.07,0,0,0-.89,5.08,20.4,20.4,0,0,0,.06,5.12,11.14,11.14,0,0,0,.7,2.46c.31.8.63,1.6,1,2.38a23.51,23.51,0,0,0,1.13,2.31,5.75,5.75,0,0,0,.72,1,.79.79,0,0,0,.46.28h.64l20.64,0c6.88,0,13.76,0,20.63,0l10.32,0h2.26a.4.4,0,0,0,.24-.08,3.29,3.29,0,0,0,.78-.94,12.23,12.23,0,0,0,.62-1.12,48.05,48.05,0,0,0,2-4.75h0a8.43,8.43,0,0,0,.41-2.89c0-1,0-2-.12-3-.16-2-.42-3.94-.75-5.9.36,1.95.65,3.92.85,5.89.09,1,.16,2,.17,3a8.35,8.35,0,0,1-.38,3h0a47,47,0,0,1-2,4.78c-.19.38-.4.77-.62,1.14a3.6,3.6,0,0,1-.86,1,.56.56,0,0,1-.36.12H468l-10.32,0c-6.87,0-13.75.06-20.63,0L416.37,300h-.64a1,1,0,0,1-.62-.36,5.51,5.51,0,0,1-.75-1.08,23.78,23.78,0,0,1-1.13-2.33q-.51-1.2-1-2.4a10.76,10.76,0,0,1-.68-2.5,20.25,20.25,0,0,1,0-5.16A36.28,36.28,0,0,1,412.58,281.05Z" style="opacity: 0.2; transform-origin: 442.924px 290.5px;" class="animable"></path></g><path d="M411.07,281.81c.94,0,9.46,4.23,9.85,4.58s1.75,3.72,1.32,4.19-6.3.82-8.11.82-7.08.09-8-.41.5-4.9,1.17-5.92C408.15,283.76,410,281.85,411.07,281.81Z" style="fill: rgb(255, 199, 39); transform-origin: 414.076px 286.608px;" id="elhtw14wdwfw6" class="animable"></path><g id="elb8exg2g2o3n"><g style="opacity: 0.3; transform-origin: 413.052px 284.727px;" class="animable"><path d="M411.61,282.42a33.28,33.28,0,0,1,4.73,2.2c.19.16.84,1.78.63,2a17.61,17.61,0,0,1-3.89.39,18.73,18.73,0,0,1-3.84-.2c-.45-.24.24-2.34.56-2.83S411.1,282.44,411.61,282.42Z" style="fill: rgb(255, 255, 255); transform-origin: 413.052px 284.727px;" id="eljhm1b9p5w1" class="animable"></path></g></g><path d="M474.75,281.81c-.94,0-9.47,4.23-9.86,4.58s-1.74,3.72-1.31,4.19,6.29.82,8.11.82,7.08.09,8-.41-.51-4.9-1.17-5.92C477.67,283.76,475.82,281.85,474.75,281.81Z" style="fill: rgb(255, 199, 39); transform-origin: 471.743px 286.608px;" id="el5w3ufdv60sh" class="animable"></path><g id="elj4sxoeoo6x"><g style="opacity: 0.3; transform-origin: 473.654px 284.737px;" class="animable"><path d="M475.16,282.33a34,34,0,0,0-4.93,2.28c-.2.17-.87,1.86-.66,2.1a18.33,18.33,0,0,0,4.06.41,19.54,19.54,0,0,0,4-.21c.46-.25-.26-2.44-.59-3S475.69,282.34,475.16,282.33Z" style="fill: rgb(255, 255, 255); transform-origin: 473.654px 284.737px;" id="elvxepz4ss7t" class="animable"></path></g></g><circle cx="442.91" cy="288.62" r="14.67" style="fill: rgb(38, 50, 56); transform-origin: 442.91px 288.62px;" id="eliv49o74fe7" class="animable"></circle><circle cx="442.91" cy="288.62" r="9.14" style="fill: rgb(219, 219, 219); transform-origin: 442.91px 288.62px;" id="elksn7wpd9wz" class="animable"></circle><path d="M443.65,283.11c0,1.36-.33,2.47-.74,2.47s-.74-1.11-.74-2.47.33-2.47.74-2.47S443.65,281.75,443.65,283.11Z" style="fill: rgb(199, 199, 199); transform-origin: 442.91px 283.11px;" id="ele1l1ip9nngb" class="animable"></path><path d="M439.53,284.2c1,1,1.52,2,1.23,2.27s-1.31-.26-2.27-1.22-1.51-2-1.22-2.27S438.57,283.24,439.53,284.2Z" style="fill: rgb(199, 199, 199); transform-origin: 439.016px 284.725px;" id="el6joi2p8h6fo" class="animable"></path><path d="M437.4,287.88c1.36,0,2.46.33,2.46.74s-1.1.74-2.46.74-2.47-.33-2.47-.74S436,287.88,437.4,287.88Z" style="fill: rgb(199, 199, 199); transform-origin: 437.395px 288.62px;" id="elgvtspxyd1ql" class="animable"></path><path d="M438.49,292c1-1,2-1.52,2.27-1.23s-.26,1.31-1.23,2.27-2,1.51-2.26,1.22S437.53,293,438.49,292Z" style="fill: rgb(199, 199, 199); transform-origin: 439.017px 292.514px;" id="ela4mg05o7d3q" class="animable"></path><path d="M442.17,294.13c0-1.36.33-2.47.74-2.47s.74,1.11.74,2.47-.33,2.47-.74,2.47S442.17,295.5,442.17,294.13Z" style="fill: rgb(199, 199, 199); transform-origin: 442.91px 294.13px;" id="elpwoqub8klvr" class="animable"></path><path d="M446.28,293c-1-1-1.51-2-1.22-2.27s1.31.26,2.27,1.23,1.51,2,1.22,2.26S447.25,294,446.28,293Z" style="fill: rgb(199, 199, 199); transform-origin: 446.803px 292.475px;" id="elyhi355okbcf" class="animable"></path><path d="M448.42,289.36c-1.36,0-2.47-.33-2.47-.74s1.11-.74,2.47-.74,2.47.33,2.47.74S449.78,289.36,448.42,289.36Z" style="fill: rgb(199, 199, 199); transform-origin: 448.42px 288.62px;" id="elllmqnhielt" class="animable"></path><path d="M447.33,285.25c-1,1-2,1.51-2.27,1.22s.26-1.31,1.22-2.27,2-1.51,2.27-1.22S448.29,284.28,447.33,285.25Z" style="fill: rgb(199, 199, 199); transform-origin: 446.805px 284.727px;" id="elwtueu9gm9e" class="animable"></path><path d="M445.2,288.62a2.29,2.29,0,1,1-2.29-2.29A2.28,2.28,0,0,1,445.2,288.62Z" style="fill: rgb(199, 199, 199); transform-origin: 442.91px 288.62px;" id="eldrjc5jn2exj" class="animable"></path></g><g id="freepik--car-1--inject-34" class="animable" style="transform-origin: 272.617px 394.555px;"><path d="M201.18,362.42s-3.83-1.6-4.4-2.5-3.06-4.67-3.93-4.82c-3.28-.55-12.22-.22-15.22,1.4-1.65.88.08,7.42,1.59,9s12.3,1.85,14,1.5a5.92,5.92,0,0,0,3-2.15l4.29,1.2Z" style="fill: rgb(255, 199, 39); transform-origin: 189.07px 360.994px;" id="elg0yp5qg7kts" class="animable"></path><path d="M202.23,357.61s-2.9.42-3.6,1-2.91,5.48-2.77,7.17a6.85,6.85,0,0,0,1.92,3.42Z" style="fill: rgb(255, 199, 39); transform-origin: 199.042px 363.405px;" id="eligj6vr1ijo" class="animable"></path><g id="el21io9ets5gz"><path d="M202.23,357.61s-2.9.42-3.6,1-2.91,5.48-2.77,7.17a6.85,6.85,0,0,0,1.92,3.42Z" style="opacity: 0.1; transform-origin: 199.042px 363.405px;" class="animable"></path></g><path d="M344.06,362.42s3.82-1.6,4.39-2.5,3.06-4.67,3.93-4.82c3.28-.55,12.22-.22,15.23,1.4,1.64.88-.09,7.42-1.6,9s-12.29,1.85-14,1.5a5.87,5.87,0,0,1-3-2.15l-4.3,1.2Z" style="fill: rgb(255, 199, 39); transform-origin: 356.167px 360.994px;" id="eliry423giwf" class="animable"></path><path d="M343,357.61s2.91.42,3.61,1,2.9,5.48,2.76,7.17a6.85,6.85,0,0,1-1.92,3.42Z" style="fill: rgb(255, 199, 39); transform-origin: 346.188px 363.405px;" id="elnqm1u7u2ed" class="animable"></path><g id="el86f1dkmgtpe"><path d="M343,357.61s2.91.42,3.61,1,2.9,5.48,2.76,7.17a6.85,6.85,0,0,1-1.92,3.42Z" style="opacity: 0.1; transform-origin: 346.188px 363.405px;" class="animable"></path></g><rect x="179.11" y="401.56" width="27.49" height="57.34" rx="11.25" style="fill: rgb(38, 50, 56); transform-origin: 192.855px 430.23px;" id="eliyr0t82ia9n" class="animable"></rect><path d="M188.2,385s-6.38,3.25-7.88,6.25,0,34,0,36.37,4.62,17.87,5.5,19.49,13,3.5,13,3.5Z" style="fill: rgb(255, 199, 39); transform-origin: 189.237px 417.805px;" id="elityu8z7d7s" class="animable"></path><g id="elz1yku7l4yw"><path d="M188.2,385s-6.38,3.25-7.88,6.25,0,34,0,36.37,4.62,17.87,5.5,19.49,13,3.5,13,3.5Z" style="opacity: 0.1; transform-origin: 189.237px 417.805px;" class="animable"></path></g><g id="el9xc8z9xts6t"><rect x="338.64" y="401.56" width="27.49" height="57.34" rx="11.25" style="fill: rgb(38, 50, 56); transform-origin: 352.385px 430.23px; transform: rotate(180deg);" class="animable"></rect></g><path d="M357,385s6.37,3.25,7.87,6.25,0,34,0,36.37-4.62,17.87-5.49,19.49-13,3.5-13,3.5Z" style="fill: rgb(255, 199, 39); transform-origin: 355.958px 417.805px;" id="elgft8tsp4glt" class="animable"></path><g id="elvzxd61zd55c"><path d="M357,385s6.37,3.25,7.87,6.25,0,34,0,36.37-4.62,17.87-5.49,19.49-13,3.5-13,3.5Z" style="opacity: 0.1; transform-origin: 355.958px 417.805px;" class="animable"></path></g><path d="M359.51,436.54c-.06.81-2.81,12.44-3.94,13.62s-23.62,2.13-25,2.13-5.68-2.44-6.49-2.62-45.95-.07-51.47-.07-50.66-.13-51.47.07-5.12,2.62-6.5,2.62-23.87-.94-25-2.13-3.88-12.81-3.94-13.62.81-3.68.81-4.31-.67-44.16-.48-45,2-6.74,2.77-8,7.92-10.26,8.1-10.83c4.38-13.14,16.64-32.38,18.51-34.07a12.39,12.39,0,0,1,6.24-2.95c1.87-.23,27.23-1.17,51-1.17s49.08.94,50.95,1.17a12.4,12.4,0,0,1,6.23,2.95c1.87,1.69,14.13,20.93,18.51,34.07.19.57,7.32,9.56,8.11,10.83a54.72,54.72,0,0,1,2.76,8c.19.85-.48,44.38-.48,45S359.58,435.73,359.51,436.54Z" style="fill: rgb(255, 199, 39); transform-origin: 272.606px 391.25px;" id="el8p0bv8lncfh" class="animable"></path><g id="elc8a7ojt7co"><path d="M354.06,428.79c0,.75-1,6.59-1.68,6.75-18.1,4.5-61.57,8.29-79.76,8-18.19.3-61.67-3.49-79.77-8-.66-.16-1.67-6-1.67-6.75s.75-9.06,1.67-9.31,20.08,3.19,36.18,5.33a353.22,353.22,0,0,0,87.18,0c16.09-2.14,35.24-5.58,36.17-5.33S354.06,428,354.06,428.79Z" style="opacity: 0.1; transform-origin: 272.62px 431.512px;" class="animable"></path></g><g id="elzu0e5uyrm6r"><path d="M336.37,421.82l-6.16,17.54c-20.07,2.61-44.94,4.38-57.59,4.17C260,443.74,235.1,442,215,439.36l-6.16-17.54c6.22,1,13.45,2.1,20.15,3a353.3,353.3,0,0,0,87.19,0C322.91,423.92,330.15,422.8,336.37,421.82Z" style="fill: rgb(255, 255, 255); opacity: 0.5; transform-origin: 272.605px 432.684px;" class="animable"></path></g><path d="M316.21,424.81c.09.42-3.37,7.3-6,11.39a18.12,18.12,0,0,1-5.39,4.22c-.88.18-11.66,3.11-32.22,3.11s-31.34-2.93-32.22-3.11A18,18,0,0,1,235,436.2c-2.61-4.09-6.07-11-6-11.39s13,2.7,43.59,2.7S316.13,424.39,316.21,424.81Z" style="fill: rgb(38, 50, 56); transform-origin: 272.605px 434.151px;" id="eltqb5ljtrvz" class="animable"></path><path d="M204.56,428.7a3.8,3.8,0,1,1-3.8-3.8A3.8,3.8,0,0,1,204.56,428.7Z" style="fill: rgb(255, 255, 255); transform-origin: 200.76px 428.7px;" id="el27hd7hy1tuj" class="animable"></path><path d="M198.08,426a4.09,4.09,0,0,1,7,2.68,4.14,4.14,0,0,1-4.28,4.28,4.1,4.1,0,0,1-2.68-7Zm0,0a3.52,3.52,0,1,0,5.17.19,3.53,3.53,0,0,0-5.17-.19Z" style="fill: rgb(219, 219, 219); transform-origin: 200.998px 428.871px;" id="elyhwsywb50ur" class="animable"></path><path d="M340.26,428.7a3.8,3.8,0,1,0,3.8-3.8A3.8,3.8,0,0,0,340.26,428.7Z" style="fill: rgb(255, 255, 255); transform-origin: 344.06px 428.7px;" id="elcnjlt5muv18" class="animable"></path><path d="M346.74,426a3.52,3.52,0,1,0-.2,5.16,3.54,3.54,0,0,0,.2-5.16Zm0,0a4.09,4.09,0,0,1-2.68,7,4.14,4.14,0,0,1-4.28-4.28,4.09,4.09,0,0,1,7-2.68Z" style="fill: rgb(219, 219, 219); transform-origin: 343.869px 428.911px;" id="elel7av1ur6c" class="animable"></path><path d="M344.89,367.75s-33.87,1.48-72.27,1.48-72.28-1.48-72.28-1.48c6.94-17.38,16-30.81,17-31.56a26.24,26.24,0,0,1,5.56-2.31c4.25-1.07,34.68-1.25,49.72-1.25s45.46.18,49.71,1.25a26.1,26.1,0,0,1,5.57,2.31C328.89,336.94,338,350.37,344.89,367.75Z" style="fill: rgb(69, 90, 100); transform-origin: 272.615px 350.93px;" id="elqf3gjqxlwp" class="animable"></path><path d="M344.89,367.75s-33.87,1.48-72.27,1.48-72.28-1.48-72.28-1.48q1-2.46,2-4.8c7.79.31,37.36,1.4,70.27,1.4s62.47-1.09,70.27-1.4Q343.91,365.29,344.89,367.75Z" style="fill: rgb(38, 50, 56); transform-origin: 272.615px 366.09px;" id="el21a3ohxdfcj" class="animable"></path><g id="eltiyt1p8o01"><g style="opacity: 0.7; transform-origin: 237.781px 355.605px;" class="animable"><path d="M261.42,353.47H214.14a2.76,2.76,0,0,0-2.72,2.32l-1.21,7.63a2.75,2.75,0,0,0,2.72,3.17h49.71a2.74,2.74,0,0,0,2.71-3.17l-1.21-7.63A2.76,2.76,0,0,0,261.42,353.47Z" style="fill: rgb(38, 50, 56); transform-origin: 237.781px 360.03px;" id="elc3dhwow17oo" class="animable"></path><rect x="221.03" y="344.62" width="33.51" height="11.81" rx="3.85" style="fill: rgb(38, 50, 56); transform-origin: 237.785px 350.525px;" id="elbit63uta5a6" class="animable"></rect></g></g><g id="elfdr9xbnkw6"><g style="opacity: 0.7; transform-origin: 307.454px 355.605px;" class="animable"><path d="M331.1,353.47H283.81a2.74,2.74,0,0,0-2.71,2.32l-1.21,7.63a2.73,2.73,0,0,0,2.71,3.17h49.71a2.74,2.74,0,0,0,2.71-3.17l-1.21-7.63A2.74,2.74,0,0,0,331.1,353.47Z" style="fill: rgb(38, 50, 56); transform-origin: 307.454px 360.03px;" id="el0h0zjeyfl84e" class="animable"></path><rect x="290.7" y="344.62" width="33.51" height="11.81" rx="3.85" style="fill: rgb(38, 50, 56); transform-origin: 307.455px 350.525px;" id="elr97y0k7ah9n" class="animable"></rect></g></g><polygon points="330.89 366.1 284.02 366.1 288.51 359.71 307.45 358.71 326.4 359.71 330.89 366.1" style="fill: rgb(38, 50, 56); transform-origin: 307.455px 362.405px;" id="elkxjc4ts4y6" class="animable"></polygon><path d="M307.45,350a10.94,10.94,0,0,0-7.55,18.87l3.79-.08a8.72,8.72,0,0,1-4.37-4.78,8.65,8.65,0,0,1,.82-7.75,8.94,8.94,0,0,1,1.45-1.73,8.67,8.67,0,0,1,11.93.2,8.17,8.17,0,0,1,1.39,1.76,8.59,8.59,0,0,1,1.24,4.46,8.67,8.67,0,0,1-4.58,7.66l3.8-.1a10.91,10.91,0,0,0,2.72-4.95,10.72,10.72,0,0,0,.31-2.61A11,11,0,0,0,307.45,350Z" style="fill: rgb(38, 50, 56); transform-origin: 307.448px 359.435px;" id="el8vbx9avu07x" class="animable"></path><polygon points="307.68 362.25 299.47 355.75 300.87 353.98 307.68 359.38 314.49 353.98 315.89 355.75 307.68 362.25" style="fill: rgb(38, 50, 56); transform-origin: 307.68px 358.115px;" id="el1wzpksgs1xh" class="animable"></polygon><g id="elsaeyn6385lo"><g style="opacity: 0.1; transform-origin: 273.44px 350.94px;" class="animable"><path d="M260.59,332.66,224.7,368.55l-8.66-.24,35.57-35.57Z" style="fill: rgb(255, 255, 255); transform-origin: 238.315px 350.605px;" id="elwaddwbhfg4c" class="animable"></path><path d="M329.07,337.64,297.67,369l-9,.11,34.89-34.89a22.24,22.24,0,0,1,4.35,1.93A10.25,10.25,0,0,1,329.07,337.64Z" style="fill: rgb(255, 255, 255); transform-origin: 308.87px 351.665px;" id="elsekqi9r5p7" class="animable"></path><path d="M342.32,361.67l-6.42,6.42c-2.6.09-5.69.19-9.2.29l12.76-12.76C340.41,357.54,341.37,359.56,342.32,361.67Z" style="fill: rgb(255, 255, 255); transform-origin: 334.51px 362px;" id="elu65j9a48n3" class="animable"></path><path d="M248.77,332.77l-35.45,35.45-1.33,0,35.39-35.39Z" style="fill: rgb(255, 255, 255); transform-origin: 230.38px 350.495px;" id="elir37bf1rhkq" class="animable"></path><path d="M291.68,332.72l-36.42,36.41h-1.35l36.41-36.41Z" style="fill: rgb(255, 255, 255); transform-origin: 272.795px 350.925px;" id="elpgv06kg4zrk" class="animable"></path><path d="M337.76,352.28l-16.24,16.25-1.41,0,17.18-17.18C337.45,351.68,337.61,352,337.76,352.28Z" style="fill: rgb(255, 255, 255); transform-origin: 328.935px 359.94px;" id="el4m5loqs6qel" class="animable"></path><path d="M229.39,333.28l-24.83,24.83c1-2.16,2.06-4.2,3.06-6.12l18.51-18.51C227.07,333.4,228.17,333.34,229.39,333.28Z" style="fill: rgb(255, 255, 255); transform-origin: 216.975px 345.695px;" id="elblmx86vabqi" class="animable"></path><path d="M303.64,332.89l-36.33,36.33h-3l36.36-36.37Z" style="fill: rgb(255, 255, 255); transform-origin: 283.975px 351.035px;" id="ellnvrcvm0top" class="animable"></path></g></g><g id="el4dk2oah1zqo"><path d="M200.34,367.75a68.29,68.29,0,0,1-5.93,10.46l-.23.36c-.12.38.33,1.18.56,1.59.33.6.73,1.18,1.11,1.77-.94-.75-3.14-2.6-2.38-3.95a56.84,56.84,0,0,1,6.87-10.23Z" style="opacity: 0.1; transform-origin: 196.827px 374.84px;" class="animable"></path></g><g id="el0lno5pdgde4d"><path d="M344.89,367.75A55.47,55.47,0,0,1,351.76,378c.77,1.35-1.43,3.19-2.38,3.95.39-.59.78-1.17,1.12-1.77.23-.41.67-1.21.56-1.59l-.24-.36a69.14,69.14,0,0,1-5.93-10.46Z" style="opacity: 0.1; transform-origin: 348.405px 374.85px;" class="animable"></path></g><g id="elfh2brofm9mi"><path d="M358.05,396.08c0,.8,0,5.35-.65,5.73-1.73,1-9.37,3.45-14.13,4.33-22.3,4.12-54.72,6.43-70.65,6.17-15.93.26-48.35-2.05-70.65-6.17-4.77-.88-12.4-3.3-14.13-4.33-.63-.38-.66-4.93-.66-5.73s5.31-11.39,6.29-11.65,12,6,30.45,9.32c18.92,3.4,48.7,3.49,48.7,3.49s29.78-.09,48.7-3.49c18.45-3.33,29.46-9,30.44-8.76S358.05,395.29,358.05,396.08Z" style="opacity: 0.1; transform-origin: 272.615px 398.376px;" class="animable"></path></g><g id="elzb566hpmtjh"><path d="M357.4,401.81C351,405.2,344,407,336.89,408.19s-14.17,2.38-21.29,3.29c-14.25,1.79-28.59,3.23-43,3.21-23.36-.2-46.65-3.12-69.56-7.53a59.21,59.21,0,0,1-15.23-5.35,63.61,63.61,0,0,0,15.38,4.51c23,3.32,46.18,6,69.41,6.12,14.28.08,28.56-1.29,42.78-2.7,7.12-.76,14.22-1.61,21.31-2.63a91.47,91.47,0,0,0,10.54-1.85,65.58,65.58,0,0,0,10.15-3.45Z" style="fill: rgb(255, 255, 255); opacity: 0.5; transform-origin: 272.605px 408.25px;" class="animable"></path></g><path d="M197.52,382.32c3.85.35,22.11,11.69,22.88,12.62s2.62,10.31,1.47,11.23-15,.45-19.11-.22-12.75-3-14.68-4.48-.45-12,1.45-14.07C192,384.7,195.06,382.09,197.52,382.32Z" style="fill: rgb(255, 255, 255); transform-origin: 204.707px 394.494px;" id="el0h2qvm9ldote" class="animable"></path><path d="M197.52,382.32a12.06,12.06,0,0,1,2.87.94c2.77,1.21,5.43,2.67,8.08,4.12,4,2.22,7.94,4.44,11.72,7a2.34,2.34,0,0,1,.92,1.38c.33,1,.57,2,.8,3a29,29,0,0,1,.8,6.09c0,1.18-.22,2-1.51,2.11a59.89,59.89,0,0,1-9.93.25,71.33,71.33,0,0,1-9.11-.79,63.09,63.09,0,0,1-13.1-4,5.37,5.37,0,0,1-1.36-.89c-1.12-1.8-.71-4.12-.59-6.11.4-2.72.77-5.65,2.33-8,2.12-2.17,4.83-5.15,8.08-5.11Zm0,0c-3.1,0-5.47,2.56-7.5,4.61a6,6,0,0,0-1.47,2.58,26.31,26.31,0,0,0-1.08,5.91,16.56,16.56,0,0,0,.14,4.45,2,2,0,0,0,1.06,1.63,52,52,0,0,0,10.73,3.28A60.19,60.19,0,0,0,211.31,406c2,.08,4,.13,6,.1a19,19,0,0,0,4.22-.35.71.71,0,0,0,.12-.34,23.73,23.73,0,0,0-.52-6.58,19.36,19.36,0,0,0-.91-3.56c-.06-.18-.25-.28-.42-.44-3.66-2.65-7.54-5-11.42-7.34a84.09,84.09,0,0,0-8-4.24,12,12,0,0,0-2.86-1Z" style="fill: rgb(219, 219, 219); transform-origin: 204.824px 394.78px;" id="elcz4o57vu50v" class="animable"></path><path d="M207,396.3a5.3,5.3,0,1,1-8.9-3.89,5.31,5.31,0,0,1,8.9,3.89Zm0,0a4.73,4.73,0,1,0-8.22,3.21A4.74,4.74,0,0,0,207,396.3Z" style="fill: rgb(219, 219, 219); transform-origin: 201.7px 396.306px;" id="eldgec9qm31n" class="animable"></path><path d="M217.22,399.63a4.54,4.54,0,1,1-7.61-3.35,4.56,4.56,0,0,1,7.61,3.35Zm0,0a4,4,0,1,0-4.26,4,4,4,0,0,0,4.26-4Z" style="fill: rgb(219, 219, 219); transform-origin: 212.68px 399.637px;" id="elij6n2c7dwv" class="animable"></path><path d="M195.85,391.61c-.59,1.7-1.22,10-.9,11.11a6,6,0,0,0,1.08,1.7c-3.44-.93-6.82-2.08-7.95-2.95-1.94-1.49-.45-12,1.45-14.07,2.44-2.7,5.53-5.31,8-5.08A16.69,16.69,0,0,1,202,384S196.43,389.9,195.85,391.61Z" style="fill: rgb(255, 199, 39); transform-origin: 194.586px 393.363px;" id="elpco1r5c221k" class="animable"></path><g id="elzzla5q0u469"><path d="M195.85,391.61c-.59,1.7-1.22,10-.9,11.11a6,6,0,0,0,1.08,1.7c-3.44-.93-6.82-2.08-7.95-2.95-1.94-1.49-.45-12,1.45-14.07,2.44-2.7,5.53-5.31,8-5.08A16.69,16.69,0,0,1,202,384S196.43,389.9,195.85,391.61Z" style="opacity: 0.2; transform-origin: 194.586px 393.363px;" class="animable"></path></g><path d="M347.71,382.32c-3.84.35-22.1,11.69-22.87,12.62s-2.62,10.31-1.47,11.23,14.95.45,19.1-.22,12.75-3,14.69-4.48.45-12-1.45-14.07C353.27,384.7,350.18,382.09,347.71,382.32Z" style="fill: rgb(255, 255, 255); transform-origin: 340.536px 394.494px;" id="el8q5eakpd29x" class="animable"></path><path d="M347.71,382.32a12.43,12.43,0,0,0-2.85,1,84.09,84.09,0,0,0-8,4.24c-3.89,2.32-7.76,4.69-11.42,7.34-.17.16-.36.26-.42.44a19.38,19.38,0,0,0-.92,3.56,24.11,24.11,0,0,0-.51,6.58c0,.21.13.4.12.34a2.2,2.2,0,0,0,.53.14,68.37,68.37,0,0,0,9.71.11,60.19,60.19,0,0,0,11.91-1.25,51.91,51.91,0,0,0,10.72-3.28,2,2,0,0,0,1.06-1.63,16.56,16.56,0,0,0,.15-4.45,26.89,26.89,0,0,0-1.09-5.91,5.9,5.9,0,0,0-1.47-2.58c-2-2.05-4.4-4.62-7.5-4.61Zm0,0c3.26-.05,6,2.94,8.09,5.11,1.56,2.31,1.92,5.24,2.32,8,.13,2,.53,4.29-.59,6.11a5,5,0,0,1-1.36.89,62.73,62.73,0,0,1-13.1,4,91.72,91.72,0,0,1-15.18.84,25,25,0,0,1-3.85-.3,2.4,2.4,0,0,1-.91-.3,1.48,1.48,0,0,1-.53-1,22.76,22.76,0,0,1,.73-6.92,28.76,28.76,0,0,1,.79-3,2.35,2.35,0,0,1,.93-1.38c3.77-2.55,7.75-4.77,11.71-7,2.65-1.45,5.31-2.91,8.09-4.12a12.61,12.61,0,0,1,2.86-.94Z" style="fill: rgb(219, 219, 219); transform-origin: 340.435px 394.808px;" id="elwogp3phndi" class="animable"></path><path d="M338.23,396.3a4.73,4.73,0,1,0,8.22-3.2,4.75,4.75,0,0,0-8.22,3.2Zm0,0a5.3,5.3,0,1,1,8.91,3.89,5.32,5.32,0,0,1-8.91-3.89Z" style="fill: rgb(219, 219, 219); transform-origin: 343.53px 396.297px;" id="elioi1h8bc9aq" class="animable"></path><path d="M328,399.63a4,4,0,1,0,4.25-4,4,4,0,0,0-4.25,4Zm0,0a4.54,4.54,0,1,1,7.61,3.35,4.56,4.56,0,0,1-7.61-3.35Z" style="fill: rgb(219, 219, 219); transform-origin: 332.54px 399.623px;" id="elgapbminrklh" class="animable"></path><path d="M349.39,391.61c.59,1.7,1.21,10,.9,11.11a5.86,5.86,0,0,1-1.09,1.7c3.45-.93,6.83-2.08,8-2.95,1.93-1.49.45-12-1.45-14.07-2.44-2.7-5.53-5.31-8-5.08a16.82,16.82,0,0,0-4.46,1.68S348.8,389.9,349.39,391.61Z" style="fill: rgb(255, 199, 39); transform-origin: 350.697px 393.363px;" id="elmwodx66qrg" class="animable"></path><g id="elke100117goo"><path d="M349.39,391.61c.59,1.7,1.21,10,.9,11.11a5.86,5.86,0,0,1-1.09,1.7c3.45-.93,6.83-2.08,8-2.95,1.93-1.49.45-12-1.45-14.07-2.44-2.7-5.53-5.31-8-5.08a16.82,16.82,0,0,0-4.46,1.68S348.8,389.9,349.39,391.61Z" style="opacity: 0.2; transform-origin: 350.697px 393.363px;" class="animable"></path></g><path d="M321.32,393.75c.09.41-4.55,10.39-5.39,11.61s-4.87,3.33-5.81,3.52S294.75,412,272.62,412s-36.56-2.93-37.51-3.11-5-2.3-5.8-3.52-5.49-11.2-5.39-11.61,14,2.28,22.35,2.61c4.13.16,17.06.88,26.35.88s22.22-.72,26.35-.88C307.35,396,321.23,393.33,321.32,393.75Z" style="fill: rgb(55, 71, 79); transform-origin: 272.62px 402.853px;" id="eltrqd5op8s7" class="animable"></path><path d="M233.05,394.93c1.88.27,3.91.55,5.91.79H224.67c-.13-.29-.24-.55-.33-.79Zm79.14,0c-1.89.27-3.91.55-5.92.79h14.29c.13-.29.24-.55.34-.79Zm-30.95,2.16c-3,.09-5.95.15-8.62.15s-5.64-.06-8.62-.15H225.28c.11.26.23.52.35.79h94c.13-.27.25-.53.36-.79Zm-55,2.16c.12.27.25.53.37.79h92l.36-.79Zm1,2.16.38.79h89.91c.13-.25.26-.52.39-.79Zm1.05,2.16.41.79H316.5c.12-.24.26-.5.4-.79Zm1.29,2.16a8.15,8.15,0,0,0,1,.79h84a8,8,0,0,0,1-.79Zm3.27,2.16a16.59,16.59,0,0,0,1.64.79H310.7a16.62,16.62,0,0,0,1.65-.79Zm9.5,2.16c1.88.26,4.11.53,6.65.79h47.15c2.54-.26,4.77-.53,6.66-.79Z" style="fill: rgb(69, 90, 100); transform-origin: 272.62px 402.885px;" id="elc1h3u9p7lq" class="animable"></path><rect x="254.14" y="418.83" width="36.95" height="9.87" style="fill: rgb(255, 255, 255); transform-origin: 272.615px 423.765px;" id="elot96je7hsf" class="animable"></rect></g><defs>     <filter id="active" height="200%">         <feMorphology in="SourceAlpha" result="DILATED" operator="dilate" radius="2"></feMorphology>                <feFlood flood-color="#32DFEC" flood-opacity="1" result="PINK"></feFlood>        <feComposite in="PINK" in2="DILATED" operator="in" result="OUTLINE"></feComposite>        <feMerge>            <feMergeNode in="OUTLINE"></feMergeNode>            <feMergeNode in="SourceGraphic"></feMergeNode>        </feMerge>    </filter>    <filter id="hover" height="200%">        <feMorphology in="SourceAlpha" result="DILATED" operator="dilate" radius="2"></feMorphology>                <feFlood flood-color="#ff0000" flood-opacity="0.5" result="PINK"></feFlood>        <feComposite in="PINK" in2="DILATED" operator="in" result="OUTLINE"></feComposite>        <feMerge>            <feMergeNode in="OUTLINE"></feMergeNode>            <feMergeNode in="SourceGraphic"></feMergeNode>        </feMerge>            <feColorMatrix type="matrix" values="0   0   0   0   0                0   1   0   0   0                0   0   0   0   0                0   0   0   1   0 "></feColorMatrix>    </filter></defs></svg>